<mxfile host="app.diagrams.net" modified="2023-06-18T18:24:56.085Z" agent="Mozilla/5.0 (Windows NT 10.0; Win64; x64) AppleWebKit/537.36 (KHTML, like Gecko) Chrome/114.0.0.0 Safari/537.36" etag="zcIUBB5vGkPxAq0u-dkJ" version="21.3.8" type="device">
  <diagram name="Страница 1" id="4z00RaQAxQmhVNx2afPg">
    <mxGraphModel dx="1195" dy="616" grid="1" gridSize="10" guides="1" tooltips="1" connect="1" arrows="1" fold="1" page="1" pageScale="1" pageWidth="827" pageHeight="1169" math="0" shadow="0">
      <root>
        <mxCell id="0" />
        <mxCell id="1" parent="0" />
        <mxCell id="HRxc4X_hzgKkuUtEuaF5-5" value="" style="rounded=1;whiteSpace=wrap;html=1;fillColor=none;dashed=1;fontStyle=1" parent="1" vertex="1">
          <mxGeometry x="175" y="330" width="170" height="120" as="geometry" />
        </mxCell>
        <mxCell id="HRxc4X_hzgKkuUtEuaF5-1" value="ZooKeeper" style="rounded=1;whiteSpace=wrap;html=1;fillColor=#d5e8d4;strokeColor=#82b366;fontStyle=1" parent="1" vertex="1">
          <mxGeometry x="190" y="350" width="120" height="60" as="geometry" />
        </mxCell>
        <mxCell id="HRxc4X_hzgKkuUtEuaF5-2" value="ZooKeeper" style="rounded=1;whiteSpace=wrap;html=1;fillColor=#d5e8d4;strokeColor=#82b366;fontStyle=1" parent="1" vertex="1">
          <mxGeometry x="200" y="360" width="120" height="60" as="geometry" />
        </mxCell>
        <mxCell id="HRxc4X_hzgKkuUtEuaF5-3" value="&amp;nbsp; RabbitMQ" style="rounded=1;whiteSpace=wrap;html=1;fillColor=#d5e8d4;strokeColor=#82b366;fontStyle=1" parent="1" vertex="1">
          <mxGeometry x="210" y="370" width="120" height="60" as="geometry" />
        </mxCell>
        <mxCell id="HRxc4X_hzgKkuUtEuaF5-6" value="RabbitMQ Cluster" style="text;html=1;align=center;verticalAlign=middle;whiteSpace=wrap;rounded=0;fillColor=default;fontStyle=1" parent="1" vertex="1">
          <mxGeometry x="200" y="440" width="120" height="20" as="geometry" />
        </mxCell>
        <mxCell id="HRxc4X_hzgKkuUtEuaF5-10" style="rounded=0;orthogonalLoop=1;jettySize=auto;html=1;entryX=1;entryY=0.5;entryDx=0;entryDy=0;endArrow=none;endFill=0;dashed=1;fontStyle=1" parent="1" source="HRxc4X_hzgKkuUtEuaF5-7" target="HRxc4X_hzgKkuUtEuaF5-5" edge="1">
          <mxGeometry relative="1" as="geometry" />
        </mxCell>
        <mxCell id="HRxc4X_hzgKkuUtEuaF5-7" value="RabbitMQ Backup Daemon" style="rounded=1;whiteSpace=wrap;html=1;fillColor=#e1d5e7;strokeColor=#9673a6;fontStyle=1" parent="1" vertex="1">
          <mxGeometry x="390" y="320" width="120" height="60" as="geometry" />
        </mxCell>
        <mxCell id="HRxc4X_hzgKkuUtEuaF5-8" value="Telegraf&amp;nbsp;&lt;br&gt;Agent (external)" style="rounded=1;whiteSpace=wrap;html=1;fillColor=#e1d5e7;strokeColor=#9673a6;fontStyle=1" parent="1" vertex="1">
          <mxGeometry x="390" y="410" width="120" height="60" as="geometry" />
        </mxCell>
        <mxCell id="HRxc4X_hzgKkuUtEuaF5-14" style="rounded=0;orthogonalLoop=1;jettySize=auto;html=1;endArrow=none;endFill=0;dashed=1;fontStyle=1;" parent="1" source="HRxc4X_hzgKkuUtEuaF5-13" edge="1" target="HRxc4X_hzgKkuUtEuaF5-5">
          <mxGeometry relative="1" as="geometry">
            <mxPoint x="280" y="310" as="targetPoint" />
          </mxGeometry>
        </mxCell>
        <mxCell id="HRxc4X_hzgKkuUtEuaF5-13" value="RabbitMQ Operator" style="rounded=1;whiteSpace=wrap;html=1;fillColor=#dae8fc;strokeColor=#6c8ebf;fontStyle=1" parent="1" vertex="1">
          <mxGeometry x="185" y="220" width="150" height="60" as="geometry" />
        </mxCell>
        <mxCell id="HRxc4X_hzgKkuUtEuaF5-16" style="rounded=0;orthogonalLoop=1;jettySize=auto;html=1;endArrow=none;endFill=0;exitX=0.613;exitY=0.993;exitDx=0;exitDy=0;exitPerimeter=0;dashed=1;fontStyle=1;entryX=-0.001;entryY=0.165;entryDx=0;entryDy=0;entryPerimeter=0;" parent="1" source="HRxc4X_hzgKkuUtEuaF5-13" edge="1" target="HRxc4X_hzgKkuUtEuaF5-7">
          <mxGeometry relative="1" as="geometry">
            <mxPoint x="390" y="310" as="targetPoint" />
            <mxPoint x="325" y="280" as="sourcePoint" />
          </mxGeometry>
        </mxCell>
        <mxCell id="HRxc4X_hzgKkuUtEuaF5-17" value="deploy&lt;br&gt;and manage" style="text;html=1;strokeColor=none;fillColor=default;align=center;verticalAlign=middle;whiteSpace=wrap;rounded=0;fontStyle=0" parent="1" vertex="1">
          <mxGeometry x="220" y="290" width="80" height="20" as="geometry" />
        </mxCell>
        <mxCell id="JmjW4H4n3zkzEFeAkcXk-20" value="" style="shape=image;verticalLabelPosition=bottom;labelBackgroundColor=default;verticalAlign=top;aspect=fixed;imageAspect=0;image=data:image/png,iVBORw0KGgoAAAANSUhEUgAAAHoAAAB8CAYAAAHRB5RvAAAAAXNSR0IArs4c6QAAAARnQU1BAACxjwv8YQUAAAAJcEhZcwAAFxEAABcRAcom8z8AABwYSURBVHhe7V0JmFxVlT63xQ0VFAdkm1F0wGWiqKjgyBBHAwkknU53OmFNoiJRkCzdtXUSQoHADDKCiqjjMoD7wIxRViHdXa+qurNgEvZdHBGBCKgxkZBAQjL/f/vc5tWrV9W19Sbv/77zvar77rvbWe65y7tPxi4SOTkvljE3JTIyUYOGxpJVZncyV5riPfI+jVqMRM70hT0UJI1ejGRePh32gJ/O+VWZBBJ5c38s13Q6fy9dY3an8gMPdaFaCU/W2kjlkFwrB/tzW7oWOa7Dw1nzU96fNWtW6dwJloDXJcjdnxDDZs6c+T0mcOKJJ1piWBHi3fJR91AKxV7kycf1VhFOPvnkHfrzJbAE6d3SFMwdkYtyDK1O3DM/40Nd/YUtHVbkku1xzvqXcnclOOmkkwoi4+EdU6dOPUj/lseCrHyA1/b29ieZK2nKlCn72psRwrEQ6gp2XpfMmO9q0NDwsy2MNFoxwiIHiQql0Qux7LbwB/wEXXibRi8Eb/IKm3cl9d49sMxnLErm7CL7H2JpeA8q+z82Uikk+8zu+d2yt7M0JFob3qOIUuZLKsngA0gEFuaWsz15l94qQMkEaAxdIqk+OTyoYQQefoX+fAnuoZgnZ2uQnHrqqUUPt7W1zdGfhXAJOGJYsJgli+2H02uCD5DCTFWEMYSUJ0cvgz4FpaAUUfcSXlNCH68NYQnXQkvWyFs0ycoAD2p+WEK1EKzx7zTZygCnyjoU8V45bsnq8ETLEdye+2I90sw0lqNT5rViJDLGcwmlYKSqLr0P595eZebxnPk9rxQef43CiIWzDwG0Y86SnHLKKdYEt7S0zNTblQFe1AMu8XhWrPPn0OnJ33XCbMW9pviiXnmnBhdg9uzZgwWCm7KXK5AGlUfMM/+JDuVxfw2DlPDMasaFP/RoJQm3trb+pqIC0H+0mfSZWzVIUjk5BmGb2C2ye4zl5BCGl/VkA2DmEydOfI3+LQ1/VxpGaRUk9M1HMtHm5uZ/tA+WAAsY1jEOCbTAPWEqhwLu0iiWzywE2PDCjBkz3o3rQaDv+cK/p1EjRIhQiPnXy56xXpkdz5qr0bncOHCVM06/RfbRKI0DdPeuoSY4HHHwCxP7gj5aG1Kr5JGwxCslNwqpChx9hCVWLS3fUGXmYYnUSppkZWDnH5ZILaRJVob56+WVYYlUS/FuaUlfK6/SZIcGnELrGuHh54KJDUUcH0PFpvD5zkxTJ68Vgwn4vUgMOj+OkesmhgXZwH7czp1lzA64S7P0EYtk3ryoPyuDP2GqRbzKkrupMvjyKRtQKZDhn/yZ+4mqxsKwltY1CugrvQ56oPq3eiSz5tawjIMEJ38a48Pb+AS9DkfMHG7SX2xilYIJxm6V1/E3fPBr/BMqxSTfsA8BbqrDZex+o1CrNEp5uEQ5q9HVLW/WYIvObjksmWs6GxTXoAKglo/7mxqZbmbmbW1tQ2de5ORBcjlcgZrdjqb97KJu+eisa8VOo8CZf7V9yAd4oB/TnxbIeCsz17/lMZS7q9Gs/4xardO/JcF4aA07aCwJ8pTXZF4yYZm6uV9kuE+lNWHzh80hFYCJc+YgnZY9NEgwmriQxoMjCze9P3369AMrzZiZDqlm/tpZE5iV+/RWEbQJrUqVA5180PP6NxxQodAmdkT+a9SKhioYZRzNAh5//PGHaVBpdOTlNEpzWMYkN6BHbT/EREvVZt68ea/h/apn5lK/kg9QlcKkXKNQyG7UzNnsX8VQ9WDQBIa5cI1aH868Ud7E+cZEVg7VII6L92OtXGaOUKhHNEqECBEiRIiA/rxfPprImxXwzbfQ8aczQQeSLlM5X46LfBwwMD49HZ3WziZ6mz7jnMsxgVhGpnL7Qi2rDbWQGyfGM+ZbWoSRQdqTPfwrqKNJbIDYSpmqRRsegLPzGzlZ0iiKZwemM4YFiYxZE5bpaFNNk3uVYkFe9oVB2h6W8WgRJxS7+uRN8zwZehGoFiR8YoQMH6p0rreRRGPmDJobZmAA9n+2UMMBt1wHvX5Cgyy4j4yLmOxqGjUl7IgVPPcOWmwpmPcgYllpZtdG0qDGw786S2Lfy2Fuymvq0iihiOflfeDKLC4xxHMSj2flAgyBb+bmG4QvSmalE+Gf6szI5I7V8lp9rCLEe81Fw6rTKbTsUCJNzliOo+9GxbYmPPkxrP65qNjxKU/ell4re6XXy56apKTWy94dt8g+aJD3g+KdnpyvtwrQ0tLyyYqmWRoNVMDuGkHF/xJW4XookTO/tZn4wBVqDP+3+6cCWOl0Ot2kUYYfKNx9qX7zrP6Vs26U/aHfD1SyE6IcUU06s3KsJmvR3t6+kRMs/gqXIsbj9NSMGTNa9PHGYXDfAYjWE9fBqWWH2K2yH/Q0lvBMju7p8tsHDA0NHB0bZ32dGiQycn2qW/5hca/8kyZRgJkzZx7pn/wJzCAfgvt9wckhNELNe2CKAB29yVU6SDQmuG6CkfpJskQF6gUq+G9z584tqdOosN01QuLkJDh/nN6qHdwzk8jL3cEKV0LkMsWYlL6z0Nq2trZ+lkbqtNNOY2Ef1uCacNxxx+3jOE+xR9p2xaxmcDcT1wvt77xcwhWzsAqWI4o1rPS3bYIKt9uJ3EEhj9LgmtHW1vavzh7gOrjRpSY4neZu8ERgpxQchYUQ/+0cgZUbapLT7Lr0MXL5AFbWVVqD64ZrSHId3d0bNbh6wBEpcE5I1OVETu7o6JXDNVpJpNPSREfFvyIMY/Rat77GAmpwXUCagyLOymtwbeD6XKXdE0Xfxs2aZzE6ewYW/Uo4KTE4H5+KedKuSVqgkHeygCQYq8c0uGYgjWddehD1vAbXh6RnMtYFDalsJcRng10UdG+HKyjEfKcGVw12aS4dNOYfNbixgM/85VKrPOWIc2ELPDlYk7GAfn/LGSCtfEXdDp6b5e+rmQa4vVxvjwxo5JI5mRfPmjsh3k/QCUljpMTGscva7LrgrJDY9+tjg0AlLvBzzBEbgfpP8jeOI1Ycla1ua8NYBAzRXhDTL0I3n2Zl2Rgk5ebjuHfJpEmT9tboESJEiBAhQoQIESJEeDmBU8JxTyYlsjI/kTM/5BskPPYCo6sbuXsZYd9P9sjZuH9CV7e8fcHNUrR/d0wj0S9viHtNyzFeXsuZE04lcXuGm/MOjqkduZlSzq1xtsXOwWXNUwnPXN21Wsq+MjdqAOcuZ2FJ1U4mDEVsCI7H8fsm/4TiqGFJv+keyf0nnG3BdXOXNwrc5+ReLXPejSK7mpI3GS3O8COZkctGYwdCGHWtNk9rsYYPsLCzRmrPWEWU5Q4Fc48Wb3gwpiqsROO5GF2dFrGxWOTJG8fKprkC4rJvTspu/6gZ3LakXcfYInaRWanuHb5qMFbFu+RJQPUitkr242aZ4Pldo02xrNmQyFdxkls1QIXfy2tnxlw2ZjieN8+wTPFsla+oVoplOfl7t5jekZXWczeEFGIEiH663avSZ37BslgJ9Mz3+bvh6ESluW1icY98UIP4DuBNI+WZ2YpmZWmsVz7h76KW3mZ24f439W9jwUrbERD3WGdltgZboPXPS/aZ54ejAay/vUrWa1YFQIUHrPdwV5oFsauO/eZeSUvBJraJnuyRysrceFYehLe0i/06/WQ7tCwz+uI9pskKsuHo5mJY+Ueo0/kLM3KEJl+Ejh75CJ9DGsNfaUd2L1m/6YXIvVWjFQFj7AN5wFIsL5+GeMaSOVnMPaHxHPeGyhXcK5rok8/g2pLsq34rFlUO3B6e1xvSnrxeN8wVkXvZBBz9zoIeeY8+0nC0tbWdOWPGjIJjkgaGm/I5/dt4pPrN82GV9pNtAOoafkM88zFPLrU7j3rlHdz8SndWk5MFa2Uv0uI+ebuVhFXmcnp+ersA7e3td+vOhMpPVqwXS3vkoI6V8t6giFdC1Fk+x8YgUWJI7r+9h8byN4gDKnmYf2vFiFZ6ySqZwK1QsUzTQsfJRhG9vIU9xcfBtba2LvdXWCt9JV+D1ijDCxqyeEau52/uDOLkXaPmw6A2Rbv6UMGHwvaVUMTZELo5bgfE/ipQ48/mIVhpbpTp6JbBw9rimaY0PTO+PRdWmUop7hUeODJz5swzwjbalCKVhgf08cbBdVkkGKfzNNgilm2aHc+b+20DDPSbFRPdSu484m5CTc6CG1tRkV3+ypHIfXI5bIcRN9Q2NzeXPvm5Wvj7aetM5M2WsBmLhVk5FM7JDTzvhipgnQ0MUNgYrCCftWoxQNsSnpy8sFv+oVRfD9FdS5F2FYNOX8FwSMKbuFcsWHFyHXEaM+piwVylHdn/feZJcL7kKc8EK0THA13XhzEiSvLowVRfU0xvDwlUbp4zaGHWGw1zjt/gUTXq2gTr8LWb5dV88ctfaUfkIF8jAjfvgaMwOazrqRfHHnvs61Ch7aW6LNx7f8AObNdb9QEV3BKscJDs0A9dmn2XyjNPxLOmD07Kf6U8Oa0jIxO5qdYdteiArmk//TkkEHeu/izC9OnTJzlV0M11n9dbtYEF5WJcTSMp6jEag3rNwURnryzQZC1YUBoniOkuFPQSDa4JcFXvctymsdPg2rAoK+/m8c+o/CfqGUIuhyfm3g4gIK6DHhev9eoirT4r6ypNtdBb1YPWG/2xHdei0HuiAtuq7Z5INH42QQU4u9RxBpzepMF1ISDiX9Dg6sFK01/GcPDfNYjbnlswTNwRtOrliKeh6eMWKNSDrtL4bT2+eoF0Vrg0Ie61TyW5fpreFwzUdRpscXavHA6r/UtynhMHZd1TzxRYVXLXx5UODa4LSPPrvoZcrcHVw++ckPguZQcsst4exKx75VUYRi5I5KSPledggmNtEp9PZQvFGwW0R5Kx0uBKfYdhK/yVxu+i/eQVY2FfsXNirTEq35mVpEYrCbqZKaQRC0wyoFA9roDojm7W4LqANNe4NMHp2s/X5WcyOODwV9pPVt89szPpyUUQ9Y/oY0OCIu0KCG6XPx+sQjjrrSpTMIlZNWC0NoZVOEjkPr03+N87klmzCf71zcmMpOGGzu/olTPO8uT1miS7rDc7T4pWd/LkyQforZrAAYez3tpP1/cGLqdySrmilZAdbNAQZqSgGwE3XnDchmg+rsE1AWls86VlV0DqBhfL6qk4Ca7pVk3OAg5Js79vBfcHPyRRDWATvs3nmQ65jP8T9FZjsPQ2c9/ATGT1xIMK2RtoUhYoqO26SGwAVPwMvVURIC0p13Ak/H9IbzUWC1fKofCrn+AAo2zfHEZ586Qm42D8w0NWAAXP6r1yaKK/7ThMoo3Qe8MHe6ZBTi5GZbbSL6feFlUyQFz16OyRGZqEBXRwX537KqgAKn83T/2EuPKowoNRybeDPob7D4TFnz9//qBvPzLYLYbrxfGc+QEs94Oo4E52de5lNPbtrDCvnF7iNw30SQsU/BXg2uAriI7ISeopiVLg56yP/qzJjC0sXikf4vmPJK5TXVvi2C1UoIviXqJyg+QaA7/rGzuPJUCMJ4PuRaW2UnQpzrxCFTZD7O+H5S87VRUhQoQIESJEiBAhQoQIESJEiBAhQoQIESJEGCVwfSzhyYdAc5JZSeP640TWPJLwzFO4bgbx2wE7uXDIbSF22UiJS8lFdPtL9912bT6byJnnk1nzHNL9c8xuOpB1iax8JZWXjlhWmmOeTHDfGoxQIxb/Ug7oyMoJiZxcCsb9Fg2/hUyzh06uG9hR6V/oHGmiINidJOsHysSwrn7zTNwzq+KenElB9G9+jACkr5c97etmWXNDqs9sZsMNLuVXu5w/Fghl5mIzhYA75OI580SqTy6N90jj3isYL1i0Ut6d7DPXpvrNNprPSrYnjHeyFgBCnMib36MbWOLfO/Y3BW6FjOXkS3zFt9EvrI03orWigEP7H1vcLZO0icY/4hm5gG8k0aSFVfzlTPZ4mLz506IhXmoa0+Bu0VivuYN9VVglI1JC10UNj+eb0tp04wuxjPkxhzehlYuogGjOuSmWx3do840PxFbJW2GSHg6+4hBRCQKj7TsseVP76xWjhUSv+WGk0ZURNZovLnX2ydHafOMHPKwjlpV19s3LbHHlIhog54XHMk3natONH8Ty8h5+zJK/OW7kkIpjybCKvpzJOqp580SiX/6FbZXIN508//qXPvU45sFDieM5s9IdTsyPYvNt29Qqs9OOoyHFYRV/ORAniOwBzjnz6GKf8wWNTsHyXaV/xwf4SlUia34DB+O5zox8UoMtUmvkbUnPfCPVb7Zz7prvqIQ1yHgmmmO+kuaOX7LMxW8MpX4dy0li3lWFH0juzMpl6btwPzvCH0ivF5bReXM/PUll5m87VkrRNwo5Y5bIyMSOHnMNGmgLV5DYQJxcYWMFG3BME8rLukKAn4nnmpZ/YYW8WasZCn6NN56VJOtKR0xHKMNzPt5wwc9o2whwxtgfQctfTPXJ1zp65CCNWgSeb59aJcfAtF0ez5ocnrdz4mxECgFXrwYFYSSFAXlRMy1j4G+wbiwXr+iSnkbdrg4ezlIOHav5mWVznevK/jYYHSAynY2VyAs/qH1CpQ4I16MX5+QAPDM9ljH/AfoJGviXSPNBXJ8EbYdG2fQ5vWhPtrpzgOzKmIbbEyxBZJS7z7gM43w8hGwXhOx5XB9HPX6VzJgViYy5Cs5SKpaRI+Oe7J/4hbxBi1Uz+I37eMbcwJHJ+GV0rjSj/UQtsct6lOw+szHhyc9g0loX9Mo7NLmGoeMaeS0bl1TtF9prRWtra3tbW9sy/VsEMPqS8+8dED60R8HneccFUIHvnlfjhIlzZqhpFAAIDQTA3AXTuAJ0emev/DNPHuVYXbMbPuwWk/ZkD/1XEdrb2w+aNWvW9/ky85w5c3gAwXf0VhFS3bL3wltlQrK/6cxl/Y0X7mEFh1NsnFiv3GInTEKYWStRCGxfib7aml+kb7cCqWmGUGyDCX8McR8F8fPID8BHoGm/D/fW4/cGXkG3g+x9XnH/Iftc1jxF5+jCB2xa93TkZSLro1UriYkTJ+4Bze2aPXv2X4PH25U6EW7cw06Y9A9MmHT0yilgzMD4eazPkEGIrLBwQaZCLaZpBn5X6m19MrqlpWX8meRKsGytHAJnZkM8Lx/TIIG5nQWGP0YNHJNDJ5SJh93BCi3RIpfE1KlTDwVze91ZE0Hm+onMR9ynQH34vxbXPK7dM2fOvAT3jsHv/TXZ8Qc6Y2i8h+Fg7OrsbSo4GpHbaOI5+VwyK49Qy6lBIzpMKkEcNsU882JnnxyrRS0CTPMSMPZ5v2mulSgAJAoKtZ5XCMEGCEDHuPlgtH94xcO40Z9u7uhpOl1vF6DzFntEdCe0/26rVeqBsx8OY8hwEfPDGH0XytKiRQvFtGnT3gVG5R1zggwsRWFmPYwYTwVpOxh/NfIrONFmTCFsHM2JjiX4j7FvdxJes0YNBSdUMMQ6JZmTy+EQPcLxMZ/npAkFgemSMXV1AfAXXJpMK+6ZZyFoW+I580xslVR0TBf657lgzEYyvRQjad5hCbKgOWDcWdDYb+N6J65/paAMdRIP00bcx9DP24WPMYWhJkw4WcKJfTTso2D8F+G4VTWs6PTkXXD45sSyclZnRi6AQPyAwy+7kd8zmyEc26x3DrIChvz8xO4i1S8P4bnJmmRd4EG1YORlZEzQrJNRQ3ndEJiTEDfvzpjyP+/IMRxpHaaPjT6SnhwMht5X0YQJmMExszXX6CehUetiveZLdOTG40Z4MG0CGNJNhrv+t5rhFQTmGGj8r/lckNnUfGX4lzT66AOm8Mv17DCxWg/NowDQUYL5ZvhqaPFX4MF3xTxotCcTeLqyZjnmMB2Ahj4F5v9EgyoGmPkBMNwO24IMZxgEYl06na7vvM96wenF9L388Ij5ZqMnTByxX7VLgRAG9rMkJxR66PIuEgRkJ+i5rrVmJ4TkOyyXFrMAaNR90LgbcL0BdBGoEwyaDjpYo4wKwNCLwpjNw+VQ3jUst0YdedCZQaMez9+LeuUYMOUPdi63HuepDqJ1ALM3L8m8NK4PAo12S/CgSfaXbGTcq+944DoBw/B5mO0Xg06blu0rGm3kwa8+Q5vuT+alXYPsmZAIW3nOhoGGD2PIcBG1HV78z7UoRYDWzmXfF2xI7V8bcoJ4vQBDLww6ajr23oLyD35lcEShEyYPnneXnYS4ggsDessiBi0H02/qgoaTCTS3QeY0itwwDN75qZp9AdBgrwD9NGgetR+8bdT7QQUY+k7QxuDYXZ2zr2u0kYV/eMXhDa8JTy4N+8o/16Ljnrw/kZGfwuveaF+PhZkn88mkMOZVQ1aIsmYbRwKaZQFgFg9EQ9kxrb8BqT1o2DG1tQfluSLYvfA/wldwUUWjjRzCxtHUKjvPnTO/j2fkc+XWg3nPfk7Hk89T8zlvjjQ2UwDcBgGuXlltVY11+QTJMtoz29mdaPIFgNk7AA21yc9omnA1i8P3teYaEMZoWh6Er506dWrotw+HFUNNmJA53N2hTFgLx2128PDqclj0c3kjBSHVK4cvhoOVzMnZ8ZxcB6uwCkJ0O4TjbgjHPXDAfgcr8XQyYx7jp4L18QI0Nze/BRr9dFCj1dEZU7syUZ5vhGk0wn+kUUYWS9bIW8DQOzjcCTI5jOykCeLad4hz5g9gUg8Y9gW+QL4gL/tqssMGaMQlwQkK7aPvrutzSg0EupgjUc6dYQ4jGP1ljTbyiPWaC6m1tQ6pqPXUeLvTBALAzQXQ0D/CAmRw7YbWfjWRkw/SJNuFEU/2D/MBKgE869nQ6KLhCxuR41iNNqoAM1cGHUb6ESjf4yh/2R2nw45YRlLLuGhQI7PLEdOkILCvdvPZ7LvpxZ8LX4Bbh5k3rQotBQWHGxG1aEVAg10d1GrXmOjHCz7HOcIwyP+bQSaTGIZ7Z2m80QW9XWjgPaO94cBuKsjICm4M1KIFwU+R9IQ1qPaD/63xRgxTpkzZC/nmwgSQZUJ5x96Gf5pWjGWv5IvfunIVypBhI+Rnh3kZM/ghviAwRHkNGu+6UpqN63ZoUOh4vNFAPgvQlbwQdBLZvaj/cLFGHbvgR7LB+IvpeNHcWu98BBhPi0LLEvNMWVPM2TA2ZrDPJpHhCH8RjtGyo446qqFbhidNmnQg0v0F8w4ymMQw0CZo+fg8CoMfH4dZjWFIdpt7PYUCwL53OASA/XiiV8ou9R1xxBGvRKP/jNodxnCnWYizC9p1Dajgo06VAOm8ihYC1/9lmmHdBol5qWP4w2nTpo2fty0rQXq37AGtnxLvNeejj78W9Izd4kshIMHJIlEo6JRV2/+T2bGsuWuo4dsJJ5ywPxu4lJY54j3GURPPPv05CMFvQL9WehhhG3HdQcYxHuOHCZEjtR678MzX8D901e1vHtxrzRk0fuEzkWk6sTPX1NXpmYtjPYYnDl6ezJofgaHcebIapvp5jM23+glM3gp/YTvuPRnLyTGabFmA4TPR6BvoCCkTQhlUKzkBoPYin3XQ9g9r1hFGC83NzYegL/8itJTbeC1zyCTtR0sKAcN5n3FJzlyDsavA2A5+/1qziDBWQa+dU6pg3NEQgPPBvCvAvKto+nG9GtcrEL4Q9D7uM8P9EXn/K0KECBEiRIgQIUKECBEiRIjQCIj8P4gFIyAZhfrQAAAAAElFTkSuQmCC;" parent="1" vertex="1">
          <mxGeometry x="490" y="360" width="32" height="32.52" as="geometry" />
        </mxCell>
        <mxCell id="JmjW4H4n3zkzEFeAkcXk-21" value="" style="shape=image;verticalLabelPosition=bottom;labelBackgroundColor=default;verticalAlign=top;aspect=fixed;imageAspect=0;image=data:image/png,iVBORw0KGgoAAAANSUhEUgAAAH4AAAB+CAYAAAGVJJUeAAAAAXNSR0IArs4c6QAAAARnQU1BAACxjwv8YQUAAAAJcEhZcwAAFxEAABcRAcom8z8AABfLSURBVHhe7V0LlBTFuW5ExauGezUnuTnB4wtQWBWEnemZXSAbIkTAy0NhkdeyO9MzOyzLwwUR8LV6xQgEJKBRIRhBFAkCishDQNAcEdSoF/HijYpGEBBW3q9V2a37/9XVO9091T3dPW+2v3O+M9PdVX/VX39VddXf1dVClqJgBBF8oVgKxU1ZCBPwIqrpj4AgI2CA/AARbhhqTAzTqZIjpKDiLF5E5PWbSITr7owhYvWWT2QhMcCTTIDyX+hQSoQ2g4ngCdLjCXNejgrwR86ymAwsEuJnXUeRyU8tp//f2f4F/cVjjQCkBioB6v8I5di2AEpRaviPsCSg5KFno3xgLj2nQCWgnMVkKIZKAhcOfH+EBeVDKVAWS4cCqCQsJ6Y0BVYSXiSFluEPayMWVATYlcYBte4NZQB9RFwUVsRG1NMQYuA5GoDXByhsN9xECF64cahc2zh9gdB2sHyNmxOvNEQjgAWi/1X1gR6z/ywmgxKICcC2j9QfIywJoP9vht4Ifj/Y+a+GSA3XkBp0GiWf1Kmgp+ZaDPAkE6DuD+Tj+aTk3mfof3MBwHig4URpG4ulgyI9Hk3Bi6AQC9sSfAGfJiL3TtR4IYYGC51Hy+WpJtZFMbyehUoiREnuJZwQuyfHsNK3WWVBuc2MKBFvHs6aj3PcVjUrmpF8qTtLwQRKYCTrGhCa84xG55Hj/rSUXteMRZDeYAFLiQOsXOrAJhn4999U0POXdR9DHn/hDbKv5ojmOo6kEDEZQBoCa7M6oDoDMHRt1mUEpQKhYxn7RxquKUx+BtTnVUQ0gdud/ryzDIjSRk1AVQacIiYDhSPjtAh181OXAA4reWwfbSk4cqC/Nw2jv4i1W3doM2AJmEtVpIvApnOWrLfFymnPa2QIPjCvbfihA9EIcUih+jwm0SHE0O+4gk1ZvoXFduEi15FffgHU6o1CJ+gb1CMg2kSlY4I/0oKFTCJ8IwbZ6gP8kbdZzARh5CqywlY9mjEpDsATaJvSeCbNBriCHFIMVTKpFqCOqJ8H26HKFSQUjbyUSTdBQeS0EoHU17MbpnM0JI6tIi6UwJi4CkLrgfxJPYdTF6xhsSCeGJUneAImfhxfeA8vceE6SFh1nvL6QeT+ua/GnmdUoEkcXVyGwEEAT8D1oJHqPPKLb/bJ1/A4b0jMdQWaxJGGUAcCKuAlrkDwSvIvjHa51/WJ+6QxLDUVfGWttYG0iSsuE+RVPavYFbjWcgD9fXbVOw3XcSiugJN4PUtRBV8oXxtIm3jDuL2DPJ5/8uVN5Pip0+T7Q0fJ1f0masb1mKCC2MSBMfAHuukDKdAXOz3XoZQMvE/2yII2mutKGERM4twm55daaQIBFfBsTqn3namogFPsdSxFHTSBogJuGTVTc15DdS+mEJqmgpjEPeGRLDUd1IGAyUBM4obQzWYVzPzraxpvm5r1rAs+dvwkqYP/Z+vq6LEC64kzT71CBU3al2inTip+f/g4DXPHhDnki937SUFgCtnyyZf0HEKTuCjtYikZQD19gjtTIhg5dVFUFtIS1BGAf1mxmTtHM6PghZJRy/EGhzLpceANjdBETJSFFZxezQxiqJoryC4du9E6lnXhCrRKf8jAXWwHujl8XCbkNDSCGHzPMCN08hA5w0K6cOHCRQcYtMkDt3zBW3YrzGW6wQ36enpODF3BQuUw/BERRox7aH+LXSCva7RCdIvQYZb0quAf8G9MepYBnUK+cF1Cilol3mf8oadYyhmEv/wYN4PpItYsMRxhuUkT1M8tsoGyW/IhlrsUwRc+w008W4i+GByMJhXYpgtj3aPN/CGye18Nm7ekFz/+8CN54M8vy6vadPmCvucrlvMEIUrFXGd0Ep4TJgNr3t0RO0lGosc+IYilfsMenKP8r3qN44fVE2oMuhi5Pg8ztiuJWYZHH7TylJdp4KCJh/zyi007No7yhp4lHUdOf4GGP3r0BMgZxg1jROXxtoI4ysO14PtMIxsQg5u5whQ6Vf7m4Rpv+2XdxtDz1/QYR4/HTF1gWiNsK4/jAqH8AqaVFRQ3jbvG0qHy6MJFbNryP/SXtlnotA4cPkaPEfQRACcu0rbySK/0ClPMAnCcHW+0xlMeMr3h3U/YER+Kh0+48nb6i8gbXE1/N20zj4sOeEfKGzpnefCW9nCkvJHlQdakJ6KZbtGzinobX163hZ2RIbQq5sdX0ZHyqItl0FlWEpVHeoNk8p+Xkbtm/a2hTV8Evwpa3zEpNg6HziwfsuE39A9vAQMbnpAoecpbsJyG+QHy2lsfkkVr34WaEOCHURNukZXTX2SpybCkvCjVMs0swh/+nitIIUd5xNyX1pOr+txDruo3MbnsM4EcPCI75dWIqzzWYDHYj2llEd7Kn3NHdgoNlE834iqP1xxBlJZxBSJ51b61zWqPhKr/zXeHmAQZSt8x4tHn5OOWstyJTy6jx2qYKp/wamWftJUrWLW8LpPof88TsXlD4ui0MPhrpkUC8AWe5iaAhELAd4V266yXSrS4FUaFuKqDlx9kZ7ieXFSfl3VODB6T8nDICGK4yrQjzBTpGD5d8IdGJ7T+K1lMq9J6FBWdDwXxdVprA33BImLxMXM6IQaDMLD40fLre1ZIZ5jSl1DTfslSyTEUlFfSqSV6V3CWhWu76PxBmUPAOVE6A/dsCBe6ncVy4cKFCxcuXOQKqHtMagX38esET7ibvDKjzCt7i4HnFPABpxhcD4OXw/T9XhwC48DGiDhOlxe8bhI8UiCx9z8ygR6jm8Fo7VV5/J3AeB8Lo4BOofdDIXZi0rMVMN/3l7+Zkjk/FiItiHLdJiLZADE8k1ZZXsaTSawN6IPvOLwlSzmDyCu+MCNzekxTDC1iucgAxICUcbdWRlb54rTTn8T5eiLE5TJpgzc4LqFePBVMiyvLExxJd5zgZSDTxCaYMoiB9lnhsDSnwzU4ZigqvahhNyA18VEzPrRQvx6aLuI2b/r80DyFlrBcJwmi9GVMIh3LSNX0haS29gf2HCW92HvwMLmY1wSxduLK7qRALOvC6+CKRkxj2cgsaM3T5Q1GgydZ7hMEr52LIbqQKBuAT4tj8oceYS/vxVg78IT7RF3LKoLy+GhYjzmL3yBCm0GaF6aTwtYDSdveE1gqWvCVByb+eBrG0TzBHOVPnDxNd4DhhtcTX/LDQuJdM+Evfz+WpRaFofLYVMVwV6aJTXSQ2hk+deEoX4ULjXhhOZz54hs0Du/lclOqXsdVYKg80h+uYdrYBM7JeQKRHOVxlRQ3rJ5QjRV0hU6TG8aI10fjKjBVHvur9qX/wTSyAXxthCcQmYDyv+gRfcG+ePIz0Wu4BSHWBHnayqdd5ekjseBoppENmM3PnSoPg6LR055nMeBe/d0heVsDUHzn12yvhZtL+HGRtpUHitK7TCOL8IXHcgUpdKq8J0A+3fUti0HIMewkO5SRJqpdzFrcNp4fF+lEeXSn2YIozeQKUuhU+VbFNOwhXE+nrMG9YQhp1X8y/Y/409828uMinSiPE568Ygu7sCgQJf4tTqGR8jDenvjEsoYNMvS8st9EGvbTL3aTpRv/Qf837xwhc5dvpv8VTJ61JCbuZbeABZ0oTz3Ddoa79Pk5R5BCI+U7lLIjPg4fkZeV/7bij2T+ik30f/9JT9FfrAj7v/ue/udh194aOtjRw5LyhXZ8fkaDG4Um1f7CThHNDiXI7qNnslAyUInmYEnEqg3v0d8TJ07RQZI+rkJ6N3BqeV+gJ9PMAnhC1LTb5lUWo/tCQgd3gV+7/cf42RYGSY6rfWg408wCeELUtKu8VyKr/v4RDfeH+a9AfAkUGUSPFcRVAulUeVsLj522eV5YxqbQGW58fye5EG5t9JwnSDZsi84MuVNTPZ1Xex/TzAJSoDwle8lA4ctvfkDjTnpymea8IdPS23uDB7iCFHKUHztjMT+sCS8tGkk+/uducjn88q7HsJW835Qa8ZXH2V3oGqaZBfilEFeQQo7yCOzYuOHNCP0B9zyHvx05g6UURVzl0fdoC75AZ9NFhAbK45sQV/VNxVsW95A5C1ezVLSIq3xB5EemlQ3YnNhkCnGVF0ObmUY2IIZ+4gpD5ory2N7xdRnb8EqlXIFIjvI//nSWlNz3DHerMENWzydbt3/OJEQxYcYL5OOdu9gRIWOgM/3nN9+xIy1MlU/opQOjV0o5yt/1+BJ+2DhsUlDOJMiY/8pbcifYZjCpq6sjr0M69BZ5dX8WQgtT5cXgCqaJA/iC/PdrQPl12z5lyct4YskG+SmKan82K2zV+24mIQr06LT+r/H0/7cw2cHjFt3G0GM9DJVHFxY+aXIMcXRzo46vW9Y8tDDw/IjBnUyLBCAG13GFg9VCU+RXvzKBo8dP0s0EuHlDgxVVn880SBDy8jA+8aEhlH66cPQYKI0PMowUp5SeZzlPAnxSL3mCwEsICB1UxR8WcnchTCbnLd9MLok3FLY9orMCXBjISyybSBcoJLpLvhEyvQDJjH4cjhttoposZGMByDO3e1kOU4xsKgA6hJWms5ylCWYTn3SRzjyDY1mO0gxf6C3Tu0AqiUPv/LJeLCcZghgaYDoOSDZpYUt76NLXrIE/vD7lTYHKhzFHViJPuhxqwk7D2aAT0nYdRt9CmKWSA8CPTeLCYCwI7JF5ihkRLSz34h9BYfqZxByFJ9gHlKiESVJt1C2OLmUsFNqG8Vyd4A2upu/cCkITOaILFy5cuHDhwoULFy5cuHDh4lwG+jwKRlRSt4E39LggSvuAdbKrQCF3VS2c04TBLboOgpzZVJYsM8nfC3BhD2IgTygoDwje4KsC/cBEWHZ44Tb+ydyATk/0N2E61H2KfidIWwytpo46MdKe5c5FclB0Pl0t7A9vFPyRWuoFTaVxnRLzJHtoa+F4i+ANDMzerw1lK7BL9YVfg+61jrZi2ro4hZ3tpL3DCCKI5asFT6CIaedCg47B34PBP2/YOYpXkLlM1Ik+xpS+EjxSb9C4ET+O8A65GYy9RjZ2jrZqJ0Rd5Y03NgmeskJWGo0AYtko6ALr6ZpQXsE0JmIZ4Loer5M3nHMFXmm8/Lg5CwdnmSadMUAFEMMPstI6B4DzYFTqXLx3J5vRClDFSi8H4S0NQ1cGXbrbwm0Ty4zeAqQKVpo5gOLiptDK18qODo5SLq2Ttv7QW6lbOp4seEtvoQOWeKN0vI4vH7UvIRd3qSA9K6eTKXNXkCnzVpBH4PdcpKJfv7GP03eG8QuNdGcYK2VVWElgGngHK+UsA26oIk9TzOkJ0p1gnlv5NntJpvFi2ZsfkPPzwfj4Vh2vrNREP4AozWOlnQWohm7IK71uqWsXgTcOJeu2ZsfOedmA9e/9r/waJJYNr8zUxDL2Sm8m7yU5p8Cv9Pqkv1u+nzPD23nd+sSpM2TqgjXkoXkryUPzX8tuQh4fW7Ca5tkqsCwsGx4p3/e3CwXDMvT1IhzE+aRNNCO8DPJow/DTnl8rv5mJn2a2WijZQswz5P2xhWuZNsawbXgkjqPE4GdCXnUG3izBT1XafXnCouH/uHA1EW7CwrC+b0hcwn20aUE5GTFtEQlMeQ67TJm8sMlim0Hk/qfkL00bwZHhkVj2YnA5s0aaIIaGO3p3yqLh6dZC19/Jl+GEHcrINb3Gka/31bAUCP06dpMbbG41apegA+piBseGR+IGGGl7ywi3GRGlnxx54jJheEwzbzD94LUeQ6vnQzr2N9q1zFQbHm2AOzQ62vrFLvDjO06dM5kwfPvh5Ire9zDJWsxZvI6ch/4EpcvHOfNNJeTKPveQXlWzKZt1gTGMlY+B85hqwyOpLWCslVJ4gwWCL3zAsRs23YbHMQIYctuOL5lkLU6eqSU/v/Uueiug4fOGkI5lj7CrMnZ8sVt2NuE23Hr58ZgOw9OeN1wreMrwOX+KgPcTK04aI6bb8G0HE+mRv5KzZ88yyVrU1dWTSbNfopWDOlHAuHt0X86ur68nD/9lJeTHwS0hHYZHok3EcIRZKcnoEPy14JH2J/S9FruGx64XDYL/1Tv6WyFMqX7xu0qy5cOdTCohu749SFr2Hk8+gVasYMXmj2D0DeHBsFNhCsnDwcPHybXQ/QtX9OWnpSf2EJj3dBme3uuDtSDDxraOVoEbZeLS43i+ZTPaMfx1A+n9edaiNeysPTy24HXSvUK7R1f5f8Ng7pr+ZDWM6BX89NNZ0q1yBmndbyKpAQMnA8s3/UPeiLj1wDQZHm2CtknFFx3x05HpNDy2cig8T8nD5LOv9pLdBw6bc/8hUnPkBJMQi092fkWu7FlFN05vW3wvOQX3dwVD73+GPDp/JTuSkTfwPlJ631P8tOKw74QnZcND60+f4UP19JOeSYc/0E2ViDPaNbwSD0fV2H2aEQr6Ugi36p3tTEoUeJ9+4OnldP9EHMjhgO74ydPsaiyeWLKeXID7quFthpdWPCpGTFtXDzZBiqG+zFpJhLe0R0Mi+oSt0qnhrbJjgPyqRxWpOartsnd9ewDShhG+8hQMBn0lD85jV7X4Zl8Nadt/Et2MP0a+Xabb8D4pwKyVRGA3gt1JNhseedMw0kl6lEmS0X5ItVy4Spi2Q0g/6I6xJ9Dj0WegZ7Cyo7oVptPw9H8qtsMqDLdM+z2eJ8MKsXVjV42fysLNT3k+f7j/Ln5D/mKEgt17D5L/hB4jKa0dmVbD4zt/Za2ZtZIIFNqQiC5hq7Ro+LsTNbwVwnSvcupClqKMimmL5NkEL7wTprfFQ2+cilE9PvzHt0ftPpFT06Lh39y6g1xSAMrAPZsrJ1lEbxwuf8IBmfKbSMVWE2RdBGOKZRvl71IYISmGp8/og6vsfYbJDvBjXYnsaGjR8Ig9MC3CqRx1iOD6tFxi6ztJPuR9z8EjTBtjJMXwaBN/KMUvZYjS26l+SKMHfhMgl2gHCRueLoSRtgqtejRjFkoRcMrgx48zOugSHRr+XEZihgcb+CNnoTGm4QUMvI94Q6vpK8DczJjQNXwMEjI8XYIlfUS3k00LfKF84H7bj2ctGv6RZ1cR4dr+8v0dv0icKuITt5bF5PLuY8nemqMs9VicPHmKdB81A/I0gMZpDtPDtSp/f83RE2TQpKfl6y0HkGt7jSNbPvo/dtUcjg2PZY8fE86XOjGrpAmYIH6P184o2KLhx+KnbqAA5XVx8uPS1BDk47N4fzn5l+5xrBqL1m4jF7QbJo/6UQ+okGUPz29wAK3esl3+FhnKRB2vvgOmpEvptXhwZHh59VM99Ly3MmukGbhveWGF+Sc61WSGf3Wz/LFVI5w+8wPZ/vlusnnbDvLW+5+mjJve20G2fPgZ2YNr8ThePDVqDh8jq97+mMx+8Q3y7cHD7GwUR06cJis3vk/mLd1Avt5v/O1UPdZBz2Hb8HRKHSgHC2RwgwUxJNGRpdWWj160G4aSyGNa50ljxKRZi+nTQq5nkUsoY3mp1XhW+hmGOLwrDPZOsS7IGlFZqOltiu8lncunks6hx8hvRkwney3MfXMNtafPkKqpC0jnsilU1xsHPwi6w60Dbw28suERG1ZBxUlBDN/GSj1L0DlwLdTIXY7X43mCpIk/RDbovu52LuBtGOg1jFd4usejPJD7WsgvbcNKO8vQbtgl0JJfSGhdHj46xdbQdvC5QdRFGRQ6IXbtYniJIA5tzko5i+EJF0Jmzzpu/S5ZKwd67HwPPlvgCcjboCSyQLOxEcdJ9KGLNIqVYg5DDFbTLsvO4K+xUTF42r8mlw7gNARdvdiF8ZRvjMSywDLxSvexUjqHIUoRqOG1tIbzCqMxkPo+IvVg8Bza4ChZaDW6GVSCl6gnqjEMBFHHzjjjkZYKVyXywe9zCbi0yy/No44K6p2y8Qwga4m6YMuGX6+0UPCVtGXauuCiiG5Xfrfgi3wg70OP44IcqAjUuwatGnswf+RjOJ6cXd9DzTUUBn8miOGucFtYCQV8mC41opUBRsIZqRCQJqaNeZCXoh0RxNBK+rQsJxwtuQysDP6qFgJuAOwvXw8F/w5UjHpqCPQc0i6WVQwe6a1Ed05DNr1CWdS4cA4/QkDTkqpo2q6RsxDYxXoC19Ilxwo9Ya+QL/WCStIXOBwqTRm00tuFjsHbwLA+Ns5gYSFukTsAc+HChQsXLly4cJH1EIT/Byivp6OjQ/WiAAAAAElFTkSuQmCC;" parent="1" vertex="1">
          <mxGeometry x="486" y="450" width="36" height="36" as="geometry" />
        </mxCell>
        <mxCell id="JmjW4H4n3zkzEFeAkcXk-26" value="" style="shape=image;verticalLabelPosition=bottom;labelBackgroundColor=default;verticalAlign=top;aspect=fixed;imageAspect=0;image=data:image/png,iVBORw0KGgoAAAANSUhEUgAAAF8AAABfCAYAAAH5SytjAAAAAXNSR0IArs4c6QAAAARnQU1BAACxjwv8YQUAAAAJcEhZcwAAFxEAABcRAcom8z8AAByDSURBVHhe7V0HeBRHltbdJoMCyjOjMJJGownCvt097+7dhrtNt+sN/jbcwqIZkSxyFEEkyyCMAZMMJkcDBpNEcA7YBGOCDcY2a3vDt/auD+8BxhhpYvf09Ey/e69VI3pmepI0suE7/9/3fz1d9d6r0NVV1V2vejLSBqfdCkR2Gg1ouAM89bXgtFk/CAkr6bBZTzPRDigj+UHWCyy4ExTOfnbAOch0zDnYAjC8b8xsOAab/8p+osJYY6t7vLFTmH7DNDP4G2sgFO4ZW/22HEnw3FsJRHaa4ZpR9p/sZ4brXv3vlHEZ3sVlECILyoCWitvYTxnKuAxpcUE2v14LMtdpXqawq2uKsmBHiSwE/TO+QHHcmqLv0XkngnuLwfdYEYi7i86zIBkUBvuKb6QQAkDGPwtP5UEkxWfyooVD8J/IliP9p7O/I72WA6HzhLhWZ/oR+5kYwaF9A1FXVolWrAXvwFrgkcomoiQTvYF4kTD0dvhkgPledtoBakdEdhoFcVhteBy1F2myqTOQzl3jq9+W25QiXAbcb5DbkWdW5XQ6D2s3iLBzx4PFhlA7ghV6OYJTthuE+FA5eBaVfshOMWCjrqMdIVlQBmwtgeBmnXweGdcJajNEdioDHu9oX/CUJlpBrR0RWXQ0qN3AmzmyQOB45kA6T7otxYKDXdx2m+V5FpQeuO3Wj5WtJ0QOm5/DZt4OQ/rK5657jEVMJRrtvzZXRhpQknLvslvcDlttPcl/MKTiNjf+hqEdxokYf6PnUoOLCSrpsJv7s+iE8A20ukmHnarDNcIEIbKgMMA4S2c80YnkR5nCenb3SHXdDJiN/W6TQaZzauXjLFgGxbkwnJ124sPJZfkhnWBzjcSCwxFcXAneefpwPlA+l0XLoDD2UxUhPc/c8kMsqAOeh3XDuIdLQI1MRIZ7qeYH4urSmImEdPiHS26MOGrgHin+gH9EAyF6txZ8k0XFRGAn3u8KHdjT0Q/EhW9/AURSPFgAwv6CF4V9+Uv8B8Lj6JypJgaNQf7DfSBZwvmMLzHV9CH4eu+j4muZEDyX1cqCug+PLWIwSSe89dYLobubBaUXIeNEH3ZyLLj74GyWulBvqaS73goShjtslrfoN/WsTEUd3nrLszT602ySZgLUS5JipOF4ZKbUQTlQUwqRZgyOOtPDbrv5DpJ3DjD93IPdt1JGNhQL0HB7mMEQExYd0W63TqfxgkrPgqKBk+nmSOO+QaldTEoE7fyDnUbDweZIieZK8RBXTxqPwx4bSGhgYcGd8I0xnVcONrIc6rBoGRh2oX1U9Q/YaThochYiC+qEr9F4jcJ9E3HgGV/9Fkw3d8oSXSNrOuf+7nHGi+xnOEIjE5EFdYLCvNOqTrLTTsCcG6MgC8qA5ogMumdVaeQZJKO3OXwG6b634iIXEaYEf1+HXmCeQX3I7BwmFWRRMjzzyi/y8yvUlRHcXP00NT0Z/uXlnY9GSrJoGdxi3X/Aythjsndx+TfU9GRIa8qixmKid7lmGROREVhTiuG6mew0DNxyXX1IjwWFw7dB5w7Nozu5LnpOjWGfwM4SgMdKwbe6xMSCM2A7DvZMj+brLDgasLN4Udjg/ZjKxD0C7g3Fdyh1iI5dffJYdDS4HUWDQ5N/ooQPlSwqCp6dhb9UykJrMQR3F21h0bEROFQgKmcMRHi6kI7Xhdbcwfy+/OvwpHx+gwfy1zL1xIDD+apPI7Hofzr3XaaaHODlXNXpiRpJlqklDzjX8WgtIoOnMzex4Azx5cwfBl7uPTj0uCTLvJL1OotOL+BPWUDzInb62YAbZP1DaFTk7NbDLPjmh8NWU6c2IaGCtA+IMRbdLMDMf0vtUTJEmndgQd7AR0u7o1+1kanJuHS3rrfTZv0FxXvs1ldZcPdwtX+t1mGvMbhspu+5B5p+RL+v9q/QsmicbtcMphmZK8UpoJKxCoxz0hMsmdTADzRV0dxUzWhXSRM4KiiRJszy21QVOSW7XIC2/oY+/kHRs/VEpFljcHBf8A+8fRYzlTTa6ywjRCyk8mrQfYTcxkRSA5b+ojJz8Shgwo4BZjtT7TYujdT19tRb/aE3U0G8am397+zDopMD3VBSA14FatsxaYH2etMuptIj8A2p5RyYjjikFj6ut+hYcPKAUXiTNZij6BuOzw4N1d9mYnHxbv+iLG+D+XnXMLMEo/FeGI2PYozccLPADzfNZ6KqaB9uqvKPtOCjRIpPta6RukJ+HD5fjMFHAQXdY2ugfbRhBhOLCc/YGskZoRuPJAuNZrg+MrpioKX2y9IkrLTR1Y+xoMRwNRpOuydVQyT9U6Ofe5RwNVY1h8lPq3ZyU6rLWXQnXFN0ha6JVcdgOlaKQp4IM7CSGisqmagMZ2Ol2T3J8DE7jQ/PzKonuJlV4JkRTe+MqrCXeEq4plX9h5fpBZoNQRacEDAy40vQUh2eDtmZXjmbicj4eFJh7Pugfaq+Chag0pyKmORaKsB9X2kjU4mCe7b+IsnBouiHx2TAza0QlenxmJ5rVoWFRccGN7/svHc+PqItSILzSxcztSh45pddIpng0vivVmPBO7/st/zCyDTL3mDR6uCWlV5FQrKEVSrPjwrA+nJZzrukZDcLShreJdrf+R6KSHNpySUWHRuelbqfwiMovEoH3OrEhM2x3ysT3Cu1U0hGWFMCvjW6C+2rNFWo8E8tLRn/7Hq46Hfcam0TEw2Dd5XWF5mWD2141+h2MpHE4NZrB8N2LcAOHfCb8Hk3BoPbtOBcr/0FU0sI75aCEvZTFd4NRS/ym/DRVyUtorBZ62GiqQP2a8D3aLEqYS/GbS34NRNNGb5HC01wILb9EOGgBlwbCxLf0LEg7M1/0rcXH7fjEJ7EZ/y9BYfxmT/usC/sy71D2FfgCR6IYedgEbh25tdKKzO+wlTSA3iuAITH8bG/R5l3mSWXXtAqCBzNA+G53LTT/0IuiIdzF7GkegaAPQic7gP+ozmqhFfweCT7PJzC3+f6gHgsJ4xqOiGSXZZMz8L/SuZm/8nMT8RTWRf9r/R+STqb+WMWlRTgrWwQT2YB6ncSXs8C75lepUzk1oH0ZqY9cL7Xp1PzXcG1BnM2V295i53eOvikX02pvHaEj4N0bO9nqmJRNzeu1ZlL4J7wNSsqwPk7e2BNNt3AB3vZoyiSGJ70M8Fngvb+5qZYL6a89bXQZjN+n4nefKAXVGoZv0Fyd7GcEAZb+zKVTkgY5rCZ9tNrxPY669dZcM/CYb8jz223niY/xdA7m0Skl1N0X/ADrX92DDANoHuCwkJXrd1uEZj5roMbVKt311n7OuvNv6IVZzpnUbKjkDi49g1xcOpv6pRUe1tNa/UsmdTgrKv+FV7ej6g26B0otVV5rZ6I53IXaLO8TcfIRNNFan40NWFZSh7Y7gQ1g10lFTxImcHCEuk1o5qcklTz9HTGspQ8nHUWl5rBZElXh3w+2m1mN/mfXa+r+WX7rytymfmMazaThXzU2ussT+AVFgMqzc4/WF6tqWAqycNlt7wWaSwZ0mtxbE68o870M2YqKXxUd7vGZbNciOyp6CoxkeSBGRivNJKIHVOAvtiHW7rVh9MIjL3WZeUNTHZZdHJw2gw1yb7rp4zzOKIy1bTAVWea7lc0JazMUywqOfiSyDzLuMhU0gon3iciywN1xY5+tfksKjGcNss+ereu/m6/gzCsC20yBbTZjXf7h2DPhPnw1Fv+zoKTA4zEkkf4AoXoGmLBUbDmv5loj8E10DLLjWlF+WUnQvsQ0wLXsOiFCaJ3uJlnYgnR3mBuQHkhOAqvVufCBHaFw7ESGkxtruHmfkxUFd5hpstOOV3TShaUGI7hpt9HOkARycPWNdIUvktABa5hNdbgGAu4VWwo6UF7wbEWaBtR/SumGgbyyZcwXhpnTr72naNrfGqrH7S6wURiom2k4b7gRKwtFf1Y5MaZgB9fo+pE7Rxd/ZKI9pKeMkhTsZYV3mA3WP0aE1GFZ4Lx64FJHdtLiHgOINuq9rvGGU+7xlcHoMkMHIaH26XtBEbgJxodzFQnACeB5J1GS0MsKDb++jPjV9SWabyTq8EzxRh3rg0zb+jJNiYbFrCoMPibDN/1TQm3T3QRG6ui3qTBtBrwjL2xoh8TzqbKwSHXOCWlZiNIE4wx3yu6mgzLQrJwnxE+HFaWsH/mphn2exRpEL3TDOCaWjWMichwTKm6l5tk+C47VcdHk8vu8Dcb3Mo1pRDh/viLcNCCzQTlfLOqyCt+EAtOCG5m5cGotOZUp9Y98s0Vj4pzUFnha6gk7WRholGAkXd+Kch0A3hkwUkjeL/Bq0yLfBxdzfqw2o8J72z9217F4pca4YHYDpJ0MwUxXpa9r7KFBScN9yz9j30tTJ/RN7cicSVw88ubffMropwvIwkPxc+89GAF8A/ogZ9bdg8LThryS90l4XsmyB6LVoe0VJMJSzHjYat16oQVsY3Bxju/JC3BjC/Qg3NuyVQWnBLExZhpZXrLEmTev7T0otITNR5p85VnScnXmGoUyGuVyR1kQSnBs6j0ujI9aXk5tD+gUX9VeKlF1xtWYmLKJcYE9CwtPcPUo+BZqptBS5awqjxxW1VBMCIvEp77lulir1EJq0qAWxHuphuPsCX+ei3Z86I9cXVJyu9eYFO42zCsw4pI9CAurtW9w69GhYh10lj0riyOuWJOCK7vsEXrtZ6VmmWhOQkdpUdLNtD9IQsq4FqmKxTXRuRhFdrYGn9dWIZ3TfEi2Rd5nTbcl1mFJCft0GQyVVXwa3Xz4BFMfBvW4I4Ov2fyfxY3aB9mImHg12pOqaaNYWSHicVHYLv2GXhUC4GtqKiy2NtBDYjbNV6mkhDcFm3c1xiXNuK991jsRW1a0PZuzv8WE08MfkPRz4RtxYsCj6GBCOftEIWtxak9nsWA+Jjmkpp9JblHilP3uuW3FW5XW60O0b+7qOvL7ghxT+F7anaVlHYVQ3CXJv4+ulgIHCwOKr3bIylvh320MGk/hRDE3YUfqNkjkgc9HMDK2VX4sbizoOsuwtCa8QV4Bo2qLMGHGDxQBGJroc+9t0DebhoP0hOFzR0uAOq2+L0FHmlfRi8m3n24duV9jzYZhm0BUKGAhBeKgG8taPe15n3k358/W2jNH+xrzb+AcdfhBcxghI6S8Fxhlwa4uPAdyr1bfELNfyB9hMNY+IN9/pUlmT4IT+W+p7ZHIl2EY/ngP5SXlK9nyhCexcyrOEGkg8HjuT5y1GBJpR/+w33ei9w8ki4KL+T8L0umZyAcyf6TmvcGEU5hJo5kHxWPZX8Ab/YBOBHu/SGq6IRIceLRzJj+nWmB+HLOTwKvKHfUZAO8kQPB17Iv+45k1TIxGcLJzL4o8x0M/63wcu8G8ZWsZcHTmFnFjpwQpddzwH04s5ip9gw+OJ5xW/DNLKf/ZNY/gmezLkqnMgd8sC0j7Asj8SCeyLwfzmKhFW4rxMDpLPXtjDcb+NOZP4Y/ZEHwXKa8XQn+mAXSmTQORp8G/Gdv+7Z4rtf74tmv3MWC/n+hrb9B77KZz9HCGy1DyUtBNssDV34S/znjc3QDVwaYK731te9GuvUQZbcGWpy3Wf7kGFgbtsXrc3QTDptlf6z9/0rSRQgOkZ3F7mOqn6OrgLt1vbHi/5c8MZJ17iE5CS8AfVII+iextPI5ouEcZClw2C0nqeLVKjkRqRty2MzhX9z5HPHhtVvu5AbWzsAK3EPeMZGVmizpDiCnLbp45OpD+5e5gRheZ3Hx9dZFeBznspkKWbIZ0N/QhxxhOLv1RUGWrZXdIUhf9oEafgddzE20BslUbm1cGajJvD7AOsZtt7xJFUSOW92p8FRIPoaUJlWwB8cKOsbbAu1m3nftdvNQlv1PF1f713yNt9eOcNebFzrqrJexAILTbhFwluF32KxByiS2OAm7C5HCXUhsLZc99tqWdptp+JXfGoo//o3FJAy0vkBedFTZsdxjb0ZSfrGcx1l19DyuD+hbjpXbRh6tybgdxiO1NJqbJzt43mxk48956dPqevh+pipHnZlP90cAukKaSnb03bUdjrE4qBI9dgt9jvUyNpLX8a57FmX3y7RZD9GgjX35RbrDQvKhMYDGBKX9RKSW326zvsiqpudxfUB1OXYdn1Bm1TLUU6TKkj2cyYfcZhEDg2pfbLeZ53r612o/qqvSsOx1CfD9739Rqrtd47abf+i0mQ9in/8OPbzRXanmvq2kn+5+m+UEKHx5exRtdZYWtSfLniC1aN8g+duVm9vxqZZl4VMBOUdzdrOdH2g9R263sbrZ0BN1m80S9v2pHgF2O6ODmJmeGByp/6cZDhZY9A60LPgwFU/XHoZzUJUJJxenqLuh7wNGjlV0p3jrrZ/w/Xr4lQaO8q/S1VYm3h2GKh2neEJbnWkgS+amxfX+1t9jl8NRt6O8CDQ9pYvjHGBN2ostZdDnSXCwkfthZSV2hfK8elCt77rNMpyZv2XQNsB4t9tu5eltaugi0AUIDOkr4fS7594pOQZbfio21PIecgEf1DUKQ7HyB1v+cn1o9MdGbiV8Um/u5x9q9XFYHgcrGzTgXVFvGstE0g/XENN3vfeY3VyDBVxDzSlRGlULqP/01bG1Wcxc2kCb1WBkrd4ztPouTGO7d5j5iHNoODHfeDQdct1TMxLuqTF4G8xxv/GQCB/2K+vlGFRzCtMFtA881on7HjPvGVLzSyaSfmCC/8UNN0veEVipw01JkdzwHQ3m5L+qkQBX6WNJI0xjxdGWczAWZ0lon8P8UJ7cKukr6UEZkuVHmgHGWUHAo3+U6RiP9uizViyJpOFoqLlXGmsNUrqYH0yj5vVrDeXdurCqoMw5RhmfCYzHih9VkxSDE/G2HGF8vm2kIbVvc6nAMcJo58eaPoRGC3hGY2WqpNdVkj0JyyVNMINnjHHl1SFJOMwzuEYbf+cfZwLvGLQxAS/AyOrfsKj0wTGq6luusdUCP6EG3OOMCSk2msA51njZO8FYxkx0Ca7RVWOEiTXgx3RdKumESHGUN2mSSf5HBjry4+PrRJJkPeNqZH1xkulj95jqH7JsxIVzjOGe4GRTMIBpusYYLyW1VSMVuCYan4fpJnBPrE5Ib2M1iFOwQBOqJzD1lOEZodeh/p+laViBEfbp3I/2g1OxIUyo5jwTjKv5xuoRnnHVd8EYfR7tC7gy2lDsGW/4uTC5ZgTKTHGNN7zPTzIGaSsINwkrOsJmJCk+2FQDYpPxWltjZeeXmGPBOcG4gOrHNdHwj7RWvnNyxb+7JhvahSbM2BRDQnJT8QLQ74lV/8JMpATXlAoL2nH6p0WnB/fWgNBkOOuaYki49SsW3I2VA3xTDW/BLOxyaA/P5PA0IgmzsCFNqdrK1FVxdWxRlrOx6nWsJ0GYXPlVFtx9eJuqHoA5mIFpVeCZnpjQgq21yZDyZg5C20SD3t1U9bdAM1YKS4+OQTwXZhr+8tHE7r3fUeKDlorb3NMqD9J2He90rOgY5aNwqSM/77U3xn6345leeRc3o/KvjqbyahbUNXAz9U3CvZUCtBhAaMYMzKwET5KEeXjbzkx9Jw3BNVM/G+YY6A9zbtjDc/fMiqeYSNrx52kF2d5ZFRfoW4DxyinJ+ah83z3VkH53L8fMMqO3ueI8LDAAP6cS3PfJ25FSIjeb9mnhxZoV+1uDsUB9Jab5j+BcbHHMXmAe/S4/3Taj+zOmRHA361+gsntilrsCpPl4Ae7TH/qkxZjD1LoH2mnhadG3wqIq8M7FhLtB0odFleCaXar6lfl4kCt/rv5icAEWlNmDpVgZc/VduotSxZWlmkzXXP2lwPwb6UeSv78ChHnYMJtLu/9da9f95b+GxXoQFurB84AevGkgrMA74AH9HJZE0qDK98wv/1BahBcR7QgLK8A9rzzoml32WybS4xDm6/vD8sqoMikJS+V9eu8wla7Bs7C8GVZVAPdgOXjTyMASPXALy/7WtkjX+c2aZIF6D8MyLCTZWlgOsBpb3IP6T80Zilug/65nQZnHj2WILFeI8BDGLSx7N/J//ZKGZ1HJbFiDRpaUpZ380jIILC/HY0nqO0Af1um5JaV/DK7EgqItAW35lpXB9XmaqM819QS4B7X/6Vlcyvsf6khfjcEVGLe49Ip7UXnqefIsqdByy0uuwNoy4JaX9giDq7HSVpR+5FqW+jc6r7YUZfHLdadD+UM7QJ+i9S7T3c9EegzcQ2V22FgeVR4lYQ1ehOUl70mrswuYWupwrtA0CKtLONiIRleWpJ3iWqy4lSXX+BWaLi0LulfoJkkb8S5CO15mT1pfCuIa3ZqrS4qSfv+SLGjA9a7UnpTWxa8PflUJBNaXCr7VpXtpEyJT7xq8K/PLfGu1R2EnFmwDJrBWlzYGN5WAb4PuumNdsYEllzLcKzW/59dp34IdeEdtpG2qOoAtJQDbsJLW6q741une49Zq3/Ku0R73rtW9i+fv47kET2O3ukZ3HJKsINQf5VtfIgnr1csSSUwHYDvlQbuCHtiYma7Du0Hzb/5N2pekLWh4J1bcRq1MfkPXKaA+bNeBd512DEumy+BXaaoCm4vt3HrNq+ImzRvcBs0F73rNRW699u/8Bs2bwc3aN/C41LdeG7ZvJhE86wrvlnZoecqrWhniUS7b+uKjzFR6gPP/L0tbC77JbSneGtyufYffXMzBfrwo+3QgPaoFbrMG+C1JEmVhJ17ILRqna0NhwhdVnya4zcXN9EeQPtruq5b3JAitOjwW9bxXA4E2U/t2FIvBHZj4tuKUCHvwImwruuTenP8TZu4zgXtD7h3Co8WX6CPh3Fb1vCZL/3YsV6sG3FsKUvpecZch7cvJF3YX/g0OYAZ2FIFvZ2qkf6MW9xTx/l2Fc9o25vX464MQPI8UfRXTvEj5VstXsoS9WOFPaiCwu8iL5Vjm2Zb+SUBC+HYUNMGhIhBoC/bu1CnsKQR4XN4CHvTtKdgDrUVf+2uav8rO7ckr53cV7vC3Fkn05Xe1fKgS8xbYVwT8roKPhd35f0Eb5/mdBQulxwt/ITxWLP/d5meO9m19Kv2t+e/AE5jh1oJuMXAQL8ZTyGcLaSv7O9Khgv14HOtpLdLS//VhWrmwMfozyzSroXhA8vvzRgQOFOwXWvMvw/NFEDyEF1klrXj0H8A8PFcE3N78m3+7kXAw73bxiXwxQFviD6aXgccL8IIo+AzyeeQLWEHE5/D30ywOSfJqdpIl2cYLeP7aloJsVrybG8Kh3P3wAmb+ybxbj0/kgR+P8FIBiM/kXuIOZXV5pexTB32CQHgm7304ggV5NvfW4TO5ID6PlX4iH/inc3dxrXkpvwz8zEGV73+uz3twLBf8z/e5ZQjHKb85/8OKcWtCrvwjOX+DU1iYl7BgKTEHgsewIk4xnuwDgaNqcuknvIKt/6WcP8HxjC+yotya8B3L3gRnsFDHcxJSRMLpjn97CZzKbuOPZna6mbiPZGp8R7InwcnsRf7j2VuE49kOeBVl0XYsBk+gXfqnmIh04lHOw+t9QDzSJyn/nJsawtHeXw2cyQrAuWyA15BnFaSw81jYN7MheCbrsHgicxGcvy1t/av/lezJ9D0UeLXj2yiJGDiJ+Xk7B4QTmaqfhr0lIZ3Jyfef7fUN36kvm68ez8iCdzO+jF0SMfVv9HcBvtO9JkpvZgFcyALptSwQTyPPhDP4Ksb/MQv8Z3p12anrc8QB9eHC2d4jpAu9n4Q3MgH+ghfjPB4vZIJ4rvffvcd7dcuNMXlkZPwffilgYfSb2IQAAAAASUVORK5CYII=;imageBackground=default;" parent="1" vertex="1">
          <mxGeometry x="156" y="375.5" width="29" height="29" as="geometry" />
        </mxCell>
        <mxCell id="JmjW4H4n3zkzEFeAkcXk-28" value="" style="shape=image;verticalLabelPosition=bottom;labelBackgroundColor=default;verticalAlign=top;aspect=fixed;imageAspect=0;image=data:image/png,iVBORw0KGgoAAAANSUhEUgAAAFYAAABVCAYAAAGkxSPPAAAAAXNSR0IArs4c6QAAAARnQU1BAACxjwv8YQUAAAAJcEhZcwAAFxEAABcRAcom8z8AABLaSURBVGhD5VsLbBzHeaZbO/AjzzYPt26jPCRL3Nm9E83YcNzWhJE4cS2K3N3bI/VqhCBp0CQtUCBxGwOJJad5FIWBpE7TOmkruw0SoG7j2LD7jGP5ATttItupoyKOLZnivY9vipRJiRKv/zf372lvb/Zxd0uJdj7gw93OzP/P7OzMP/+8elQo22J7ydn4Fn5Uo2TrNdD7v5ox5HMT3Mi5bGoVzxOUyA0DZSJAFViytJtmsqlGeGFY+249ggNeHk23ZOnGgU0Px0dSEYkz+h78Wd65tfVFGI3E3oelHekWunEtieWDD8o4VaAbVrH1fRx0FlOOPobIZc6+6BNuQTnTK/C5+VGNMmfpJ0efhRtxiqrv5M40Za/dWrTEvS0CZUs87waW7N7rOVjibDgLtAR40BLXEuCBN65kiYcbARzfgllueWVTu6ZJOuxzs+zZ7PixCQhv+jglWzykEghT0oh0P/fsiPE/HBUOajz3ePshiuL+B6cco0bf6A5OHo4xc8t7vcIuUSrET3MtFi3tQX+awzdrl0slfvhLBK7s2lojjRfQtzvKychA6NMHB3ou9KcF0W45WR0qpSBHB0IlQxnX5aqm9tuqBJSZtHdhUMmBuW2brmiJJIXH3S/N8koUbfFBvDqMGJVyqUkPmj3QFEjMDYuPyIgYKJj6iF+eo8gEZYxcYGQE/HJFk0vrIke2wp8IXKRRQEVV2uJg/5tZXStylrjam/jkjtaBYGH07HiEFjW+zXgTR7UHEjZdRWVL38bB3QMW3SUHdYYTvjr0vjq4TEaek0ZjcSQ94xUGyWOYozZZ8IeD045RZlE1Fmg4VwkiLrdd24j/FZ+3AZ4MGt0R4U+McPcXwBcvDBmb/enAM2SgOFkdRUv/F1VCxKFuZSLCLDsm3nHEy4IpPi4TAqoEIOLmPR5OwRZ34rc4qL1dlR5vUk9oarepEtCY9JRM4EHZSr2V//aQR6eQoTq3jGt7Xg54FZYNBPkL31DJndnd1+zMecmygaA3OaCSkw6rKgJk2UAElRRsUYoRFb808p5geSUwKsuR2RIv+3W0KC3fmLqM5WIBH88rL1/fbycnqaScPhb83qHsXXlL3OMNBOeobfqdJhXdqvKSuvHvy9z8ETTAfVVGRICcj//1yjUaP0CW5khzpLiLo0JBLeCwT+4BjqpjOtv6KpiE+Mcp0HU2m9KSvWVVzfAnpAb+3xzVBCrhSW+6iaiPe5pMmFfgcFZ7LUdJlIb093jja3uCZ0pNKA5e+WbvK+I/vBnv14b1Gtu74WIWaQ+kbJurDE1thZ45KnmUTTFIDvK/TlIPwsdDp3Hfwku8JeLRpSs29QnyL1jF2uHEjq3OSapaVYFcov3POcZ91HD+SRXvJXr4KrWLuZ3paziL7gAvSzXWBrEyZLwfclR7z6rig4iXRIM+4hm0YuOlIeN69FWVYpeoGW8fh/licQnv0sVs1iiRtfqc+xzGZXI7j27X38ZqwnFmV59SiZ+u20POxC3Si7H041KBB3CpFkbTJ/Efay9+4x5E6CMrekoqUaGW1V5zwuc9hlOMsygZMX216IiP8mMDBUt8qWymBvkRz7NqXWq6E9QWwA6pBFR8eTTdNM2jsK/w3yYUhnr7+G8DNL/5Z9ScX2cQF0dTp1m0DndqHYfSqzD1ARYNRSWg7QU5dUEkF3RMChZNY7idNy3EmDxHIcjpCyKmCpPO5s00wWvvLenFznlhJS0a9JURIaReStOJ1JWcb0eAmVPpDiVWHoKGSZdkkv6T8+hZ2ZW+gXr041MZ40Wsy3JwW6jt6YNT8TOaCN9QMo1+DsY66TFV/i7JbXq0h6YxQ1Ftlgr4Y9a5JqAOtKjK12WjzQJRtQvCGSkO9l8qBRJCbniz4V8pUJGaXpFFMApt+VXv8BhEtFfv7KBbYs6jysdLDAyrzrWXcFHrGN9lvAmFUQm4jDtxiAv/BMNP7xqCEishXhYVtkhD6yPJMbitBi65+EHOSWMdPIj4hEez2ttZJBbKmdY1Sz8xQlKH+yyLxEfVFvfNKKZ6LuFVHc2+6w2cPBTjNMEK08UuaeveTycg2/h/QW1ajoKWftDvC5BJ3EJN57mgzou517xjPMHJ1wa1vQMX09zrTpg8adIUBfES8egsmCCSF3Ubqzl/WNmZaizRulymMI4+v5jPGvvdmg2qXYQhDkvC1PvP0PRmP4uvPZadrRp5TCtoa/6CuURHCWsWkJ2wjcI8DUSsNllUs9prZxxjUTreigK4xGhT3pO6LM6sQy5wWOJ5ziIZkOJ9UTNdcNpJ1WaH029cdX7jkjAT5SeaSDkjGvO0joEpdCWjzsRPd8Spfaz/IpJTpgki2j697OMy004wlzWqUSbJy7wlvs2iPdRkXmyOFyfIDq82h7VywtGVS4ChmB8xJmIUdNm7DkDG/14Wp6aTyrhfBAsh5e2pd8adPZPc06wmGlSAx+PUaNHUPzOZ0e92C0zj+b+xCona7vpiyYyTmsFzmAXxEnmTb/KXUkkYcpa2uxqzjZYtsZ8a6QU4K4E2Nzm0+XWsRiJn6s+idiuW+GM8x3GyXaKDko8dPs9bjbl0JGmJL0Emb4rH8KlnfA5NyRS98Alg9uSzLe5X6gkg5mpSkQo0z3oibofCthSLYR8ijRVAfmxCbW9/IxxmTbXvEEYq09dY/CymnE1XtLN85F2DyjnaxrylNWbAXqzs3tq09ENe2zMqfUHEUH2ov+ciFq+Daud7qsQq1juU+HMWJYc6LXI0EPBjE0jv3/NficNZ7TXtrPcir0JGfJrF63B7bhxi2f2pa30TuAAUTfFX/LeBvK21HGIII9ZrWZRqxrnynapt5yDOZ+umKA4Kpva3/LcBbLeq9AYRJo9F5XzrMVWiIFInPMiiHSNqb8JLaXct7XNSMGw26ycmiTNtThJVQAdV6Q8i7HjbgijshN27SQp2gXYL21hmJQ9emUBFFLZib3qXFOwC7Ra2sdihigwjDbPfkoJdoJ02C8LeSkFVZBjJdDUOt3WCiqXfqNIbxliFlQOApU/DkGPNAM9o7Llt6SukcAdYGEk1jqdhcU7uL1Ae5RAHqlHYMH8AQ7BMRKjSsIr9hwnH+BnGeA5uC+T8fJn0Himb+j8sjaRv4OCesZu1y1Wb/C4bhQ1z3fAi1Yz4L5lwDUGuZEmVv0uq9bo1wPldVQKXTSPIGuAFZ+tboryxxkmGoiUeViVwidr1NoekEccvaawqVszePVG+AQo8kdH/QwokCOq0x8L6DDhFbTm//cqUFMASeNwdP/8ye7eMKijY8lWpZsuqhF5CsSrDbhhVWMRT2R7iYtaRc9JXRC1MYNTh5IkhaqVnMaivUEebUgm49E5lkkLUVIrK9H1O2gzUbpjwuS4sDmPjDAQnbQV59v8Y1I4wzDbvtHTPsH0wcrg/zMUKxoxjTKiEVcToh6EwDpE2Tu9HmolMzAsPh/r7LzrlO9oWRBaJjThHrdo6KA0cGvy1S6OG4YZDHBM4goempNIFoqCw95y8PRwa7L8UwkGfDuGVjHiMk0eC/OC8Sg8IXcdHEujAU45edVcKVZzKGI9y0kBMZoKXUFHbZOMjdcQGORK3YBasKjQKMeWkaotO61UCMuofWsROjU8GxAojOl7J7P1dTp4sqLBfhL0NqmnEealKgyXVExQ3aXtOwq8lyrb4E2SMThbWaVxivRVbpjTZnKDZwodYzblHYVjbitskRUt7qaWglngccd3M2dYFagMDFy7v1LfkLN2iF/sBteH6yGbrx3ELQ+Wl+Yl1YfIfXoIc+duPlGzxQMXU34vbHZzNqxs5U7tmJiMP5j1btfXTqBAcVZBbDiEz8E4IfXA50Idxj4+8h3ma6T+4srvvfeOmeDcX6ZWJwrC4jpy/b85ljUUYsKgd3zCiZRZt8RR9lO+2uyPhJ7Zj6gsPYpZGgFtLdu8GLvL6RXVEpMngPrlIFYEKUA1Z7RBe+YSjP/kcX9MjGzjTzu51FFE+VDTyoRHunnVVyUeGDYNGsu/gglmc03ZxiGEcI13RFJ/nbHpwJIBaWTXJivUTxwjITi9Q77rj0PvjnaZKHMe2i9+adowp/03IJAjbSzbyUf+JlJKp/wGcvqCegHDYVrRAGswiTwqEEau7k47+w44vtbaLQkZcRxnOwp/vpqujAoIcTLapjVMLXpBH/ZBqbxJlOb2rr1Y2jc/PjV71bu7eLenaIXRifKDB76nnaTLGRUgWGIymndQ07o51U6Egr/59kfgVVJK/AsIqFpu+BVP/id/swAPIDWnyCF7eFMewV+uN74aygmmqTXn+cHyo79dlQZIADj+gBagy7YSyMi1xO3TnnGsvoYqdckd7uEozjn6KfNOWKy8uqDxXz4+k864M1jYqtjjA0djPuxELfd22WD8xDaPKXarYuslZdYaS3beBFP6EXkKZUafkim0cRaTWSfZal4fwsGVAaZarN2uXc7QSBcv4BAYytFwyDxUcIeMo8pm3DJD9Pxm2fNYNMRGvWPrdYwMdXIMsDPe+jwamuW78TxXxsmSzTlZsbRdnJVGw9G8v0AeETcPBKw4OBM43USu9d2XPVWiZt96bzf4yR0ngZtpcNrUatv3XDaWpscRRMpG/yVlGgwQ/hRdMuiuB9Rv04n7OqoHy6OZ3UGFXaVZ2eGw4/UYODgWZiztqe99DrT+1g4Ma2NfT80tki/fVMOVVlCMJonfRBGilmOn9Hc42GOQkX1+fmaiVdUNsqpCfOJZXHKigicVm2MXxOIVkkAm5iz7+jw4ODFzIQS04wqf22zn30w5h5wuWdmJ274bgxpAz9QFy9BfiLFe1S6nTEqfIL1Qe/Kj19FzAf2NjJtv/hlKMM5UT9F7zI8Zs0mbNJQZ2quDDGJM4y7PA9QfqWs8k6aa4rPuY5Ht2eL0tCGQC3lo0ta/zYyhgh5PwbYOIswLUg5rOA0qUbe3riFyLjGFaaDD5AWeVGKRP6163iwBmUOQuPRbnZH0nxKBM3sJi3ha/x1nyFo+tPxP3WHM7xIfChWOsjHN25w00aB4I2ipIgmhA1OvvblyVxKo5ZjuqxN0SX5JMwWoSJwC7xVpXbMu7liz9O2u1avSLVLGydzpka4e5d6oSJUVULP2ulq0tuszsPGKtKxaU26O4wF7PUJ0oKcLMeC/Cnw9UMnoKt63WwpX0MtGKhX8IRzlo7wrullxHtfS/6MRfTQLkxD8yH+FKotLxHlhsQZlVaaKYWMVCUcEWo7ghU7S0P6Ip3gF0OSpYCd0OviO8DbB+FFLcKTM9Rxjbu+FietHvI2/46CgHyoRlRir/Mvme36KGcYBG828UrS1XTe3e+Hpc+VCt+cZhU8WS8mpFkSgO8XWpsCslS7tJKgvBwYENF5cz4naS+xQHrTnIf/44uXq3lG9MXcZBochb4vZuPCTsfpRs7T6pDKfYuzHqWEHCeZdx0iMVvgJR24dFG+02HB1UvWMcYqDGJY/y8OZ3SKXY85/i9VCVQBxikYNmNadzprhFKn0FAbcTqef9XbdTXhz6L1jiWG7bprMnaagrP9ntqhYMPmzMpKP/FLfCWfW6xpitb6FG9cJMl94C3v3Mrr5a3tK+wKrrwK3KqhzZk3FHcOGWbPe/k5v14fVKKt+YnIYqyt8u0drztvg5V2czqBl/utPR8BeZMB9yAd8SV3NVtoK+3q24HdrtV8QXpKnyI6WMtnfd0hIF3AxTlT8uJ2jgnsroZ0qOPsBVGAy4HNRFVrsx5PAyqKvdxSrXJch3PSwbgKL8cQizuTiSWsKuMKuMBnw/nNTrtOW+2iu2bMuz3biofh2ri49jw9qfypmEQnEU5X0DS3yNVa1LUMU+10nFYhNxYSS9iK0sVtU+CkO9fbOOMYmV93ZaL9Ji3o0Ps16JtY123wkTiKqt/6jgO1fWMfKmvqdemO7dMXevn2zTX1Or2U+/X0iaJVN8lvJ4MKk9PDj/1FCW89s2pblKkgO2HKazqfujbv9EEYMid8FvsurEgbUBch9/3G3FYja6RF7SuKX9GateO2ATj77e91DBQUuFUYTc0mjqRH6N7sxQpX55cTR1plPPBkuIOLxXsY36xeNzjAsmM8YnpzNGWR4UVhQwjEiPQY4+0sGco/0K6+wKeSxoO0YBx5XaLQ+4RDPGyYz+9IQtRlnl+UUh09s3P2L8DdY72x3oQExKyFl/ojzc/gvhImvZ1P6Qum2h3Q+MFo28aTKzULZ69x/+QDIfeE2AEXNhR/qTVNgyBjzYuTgvizRYesPHkWdoyc+kgeieQNqiirVT6G/HJKHyj2Mgto1DNBjv5GK/8vCS3bvh+IjxCWqRL6LCMHlABXZqn+MS+mErcWesflBZPD0/mhp84aaNr+eivfqAC24FUwxOO6mHsZVBrXsJx5DQAkHeNm+pLC8RD1/ZlUEFUuXlJxz9YYp/YDGb3jrdzjHLRNHT8/8Sj06H3wTnrQAAAABJRU5ErkJggg==;imageBackground=default;" parent="1" vertex="1">
          <mxGeometry x="155.5" y="410" width="30" height="29.65" as="geometry" />
        </mxCell>
        <mxCell id="JmjW4H4n3zkzEFeAkcXk-34" value="" style="shape=image;verticalLabelPosition=bottom;labelBackgroundColor=default;verticalAlign=top;aspect=fixed;imageAspect=0;image=data:image/png,iVBORw0KGgoAAAANSUhEUgAAAFwAAABcCAYAAAGU6OLOAAAAAXNSR0IArs4c6QAAAARnQU1BAACxjwv8YQUAAAAJcEhZcwAAFxEAABcRAcom8z8AABOASURBVHhe7V0JcBNXmm5fkiVkY8uShWNjA8YCG9vYGGOYMByBEJwhCVBJMeGaYpNiqKVCmMzuJsBmc01SOSrJZGZnapLdkKMmkGSOZKo2bDITxmQmZJLYOlq35QsDBsIRbDDG2ODe9z+9Rq3Wk9QttWyT2q/qK3C/v9/736+///e/Qy2GBldFRY1v5cqd5M/IaGEYTsiO9Rvwv/7Nm0uJSBBi4SsnTob8zRYV/YGIhgt/iQgQXyfi4TcAvhJdA3oQGcvkyXOFF3kMdnYidmEOnzt3vZxxVVc/LRYWgy/HN9BUAvIQXrMgRr2hJTMz5BoWBjhXrFgqLADiGwR/NyMS8QDY7OzP+cLOH/0oRBhIxMLhEgiBzggppCgy/CtXPuOoq5tJ/gyHKz//PWHzoC//fyISQGta2vUCnuLOElG6O4ivsYhUQYD4OjBE2F5QQETBbwI+A6QK02DRaunCQvIQXmPshYUfCC8A2eLiMEGgZGtgQR4hhSpViKBv3rypRCyI9sbGW4RCnpSUyI4khn3ChB7hzWJaEb2VlS8R8djwp6ZSKxISIPQ1nujxaCLVhMJuMv1JLCxm62234YqtEydSy3kiqEi1DGPJzOylCfEELXkMHT9OlRHz1K9/PQ1XTivk2XfoEKk2AJoMjThgOWfNeoJWCEFXDr4W3Q+EymeLL14bHCS3xMaFpqaQe4XEZoEu0ArFFNoeQPMYnm7kdbhyAE1AzKsXL+JKe//3Y2o5Tx8iqTYIu1ptoQkD+dEymrZA59y5k0l1dBz9yU8K7aKbaB8YTy8iuVU+kMI6t9nc6Fu46ClbcfHN5HL88FbWzgWNaJrydKPoRsSlQzgS0tj35z+H/O1Wq2M3cnjatHzhTTRac3O5C59/Hn4dkVQTDq6rK1N8g5j8Uxvpw72eo4hBExaTB62MZ5jnODMzL9IEheRGRnDFR3fsoJYL6b3rru+RqmNrfXz3HlwxIJq/83Qg4opdtXNeoQnwbM7IINUGQJOhEdWewviiDGviQMUWFlLlaERe9UsGXIhWCBRj+OzZkJwnyM6wpNup0UROb4ZOniRVxka/xRJ2P7a7+CIQpZ3kNmmg1QFPOWMTXQRv4N1OCiKFYJtON8y40tOphTRaxJ4jmhQI6Sgp2cVYJ01qpBXSeLm1lVSLRqOPPqLK8MR+DqAV0igErZynG5FUzTDNOt1BmpCQwlQj1lBHqg0CXIcmyNNdOwdX3CJI02m0ajQDpMpQ0IR5As6++Ra1jCd11BdC7Jo8AbTrPFul5uYoFR6iVUAj2N9RWvoyuVU67HmG4+IUg6cT0arXv0pElQeylLZt4aI9LRkZx71ofgkuSDMrDH+gpB/RigZzqz7v72xZ2fdJNcmHpba2xKHRnon0mcciPConnnwq7Lofdbq1avaLpBllgKya7lCpLosbk8uuLVuwM8cagSFQO2eUP06alw9Hfr6pXVRpPMSDA4Fr1iyqTCRaU1PRPzLgzMi4Iq5ELuGpPfPmm0Rljjuz9w2qXCzCUoq7du5Gohod/nXrSuGJplUgixMmEHWDkJKkRSOblXWCqBkKV13dvGipkRSCcgMeD1E1CHGqFC9Z8fSiY8cOE4QymrBUuqqqiJqh8N9xB1U+Xlrz85F9CZrV6jM0ISkEaw6fP0/UDMW3H3wQM0OQS/D5nq1bi5kjazYUxOvXnRs3EhUpQFnmP5AMuI9c0toS0pab28m0NjbuphVGozDnUhqdmzdT2xQSzxOd5bNepRXSCB/76ddeI00oixE0EZD6EOOpimfOnDW0wjCi5D5Z6LrvfnqbEehDKQJ85mmQkNIEhKT5YiyCj0fDyNBQXKHSZjT+DUcVq1broQkkyqMPPkhUDEfnpk3Ue2IRAknT4sXpWHFAG2XbIxGCxWm4NjCA1w1p90ih/aai0OT/i/nzNZAv04Tj4ZnX3yCqBtG2Zg1VVgohMKAw+ClRNxSo7hSYJ9FulMPmlNSApgRX+y8lZGU8ETHPfJ6oGRm2goK3pC5y0wgr6Dx8t9xClZHK1lRshAyimjS4tFonrbJotOn1WOHh3t6EkiuIdF33319DVIkPzhkz/h12m2kNCAkP5NDp05ynoYFaHovwKTu02kuo38GooRTsJtM6b2oanvzSGpdLmKq1FhYeRsrG3jtWEtBg2+13LrUZDO9YJ+h6vekZONbCsMwTPi1kSY41GlmrwfDsF0VFGnL7+IC3qmqGs3jazXA4A3ZJYHMddkzs1dW1qIM6Ijb2YMvKv2/X6z+zZKhGYAwA96FFI1jOgImKB7lYi1rd0/a9hXtQUjWBVDN68FVX/9KdocIbKWIlpRJSU9jKdlRWziXVJg+tNTUv+sFqIiWksuPee3HkEV6DTwP5/xlbQ8MU0oxycG7eXOpBE1Vhg3JpITP/SLEdHmjnpIL3SJOJw1le/niiE2l+xtTz+OPUciGdKtVlJJpGmo8PrFb7VyWWLPqbm7Hi1qwsqoyYMMzDJiZRQx5g+YtWqRxCRnfq5Zex0kNnz4b5dzTC8t9XRuMkoo40sEVF7yWSZPF0VVdjpQGdGwJn6OSwNT2dG/niC2mDlau+fgOsXdAqksPmtHSicgDNMjazhHSpVINEtcjwHzigjrWVL4XwMF7r7ycqc9yA253QwpDdYPgjUZEOVqeLerZJCsGP4UiBEO6aGqqsVEKohAVZomYonIuXLVEi4+tY90OibhAw26fJyiGKcBeJqqFABSO0G+TQXlREVA2i7+BBqqxcQlh2zZ49j6gbQPdjj02LtRsZi/wgI4Y9L48qHxc12l6icgA2o4mlCkokKD104gRRNQg46ZXIJFlMGMF7tm41ELUZRsq0LBIhWpzbv5+oGgopQ7xcOisqXsFKH9m4cWoicdu3aDFRMxwtCi8yYaoyzmHF0ZTrV/GOkladjqgYjsttbbKGeKmEYzYBxXNyOmkCsQh+PTI8TNQMR8cP78VuBMrLIa0tISGmd2/ffhPDojyZJhCNoHS/zUZUjAzhGXkpvNLdzR196KfUNnlCWLQXFjbEPFhHY8+j/0FUUx5SopB36dItshWPtLumBKx6PbVNMR1m85sM+AytkEbwwWShY/16aps02vKM+yVbXJzxKYkLn34qK3v0NDQ8z/gkLCtDpb0HDpBmlAcYhdZuJHrq61cxLRMmDNMKhYSP8drQEGlGWcQ6VC8mXlyqrq5FeYox5lmyeOIxEDocDbDOQmsvGmGi4x8ZUTNsYeFuJeaXYkJn+1taiIrh6JPp1zydaAqIR86mpqZ0OZFFKsFvo0GuX1+nWo2SRAJvnBPZaHRMnkxUDEdLRgb1nlgEz7Dk5q4kaqN8xWT6OU0wER7ftZuoGQp/YyNVXgr9vJsIkegym5Dgu8Pne4mqQZz/8MO4/Jqn/aaiA0TdIFijsSmRSoWk+ffI0HD8fo3YhogGy+D3jYSQsqcvha1LlhB1g2hOj8+vrzMv7xBRMxwO88wXlAiNp155hagbgG/RIqqcVMIiKFExMmyZmoFEXAYGHuEh9N7/+Sghv4bVB/bmxfOJepGB2sqAHtIqkUKhf19FSVkifg2fvm3SpHeIarFhKysrbBVVIpXd/7ydqI38OgEDAFmNJnjiTSo8Cxea5SoPLtHfYsFK+xYvpspIpTM7G6UlcQK+MirnNAX2b4Rv3303br/Gm1nZ2X8nKsQPpIeK1WovSYk28KXgq319cfs1LEzBuQHStDJwT5v+C0gpY1kSrE67Ho1gZXt29uCRnTsLSHPKo7Wg8HA8KwM0wrI2PulvNm8i1Scf8B0GL/J/SInlDFqgLHTcnpd3rPvOO5eT6kYfR4uKNHaD4TnWYLDBCQl8UkJA6JgXpbEWrfY8nLDwL18Oi42je8QjWeAeeyy9+5FHcr318zewOTkv2PX69+z5+c0Wjea8Fc2JPRotB6EZMlj4tISEa1DmQUaz6HRXrVptL2vM/xrqsGbnPO9duHDLiaefNrZsfVXe8ajvCi7u22eyl5Tsck8uOWjVZeG5L3gTeBUEFyVyPJ44Y0C87rGIsMDsmjz5r+zUqbtPIV2IWt8ddG36p1q2eMrrbPbEYd64Sho1GvGIEyFbAh34DwGNIENscfHrXdu21RK1bxygOJfura/fxk7QHYG1PfAuWoeTSRi6HdOmcVfPfct9+7vfSd49A12xzllZ3Si8bYO+kG6NP7jmLbjbrdd34MdW0InRJHg0GPvUzwPTxss+L4fGgLiyVOgD9MWVm9vuW7DgHtLNsYXr7rv1bEnJux6VCntHvOm3EoQsGk7FwtfNAbCn5p2/IKFZIxD6hL+xhjIW59Sp70CfSfdHDyj+3eRKTT0MyzOjFY8jEWf+2dlhWw7Hdu1SdCMeCH3FS1Ko72ADYo7kwVNfn4fy0kNtMiagySQYtG31mrD32fR+/HHSnzawgSUr62+eZcvyiHmUhXPWrGfc6eljFp+FBK9GkxGu/6uviImDGPrmNOcoKoprziuXOM4jm7AzZjxDzJQ4OlavNrMTJx6HScZYxmie4NVHd+4k5g3FyNWreB9M6VASjWATsI194sST7uXLy4jZ4oOjpmaHFw2I48GrYfBjp0zhLvv9xLzhgEXtRAfJeAk2gnPenrlztxPzyYOjsvLteJdplSacaT2zdy8xKx3w9i6LRjPmTyFs5bjmzHmLmDE2uK1bM2wFBX9oT0sbc+XBW9319dzQqVPErHRcOXqUc1VWjkrclkL4diay4ftcXV3s9RvH9OlvJXL0UAniDxo9nuf/+AExaXR0bNgwbozNE6+SF0/ZS8xKh6O09CkfenzHMrcGr25fu5a7duUKMWd0nHzuuXFnbCDY0AeTpdJS+ktW7MXFtzjQADlWxsapnl7PXTj0GTFlbMABGHgH63jInmgEW7rQk8qazcuImQNAuqdac3JskN7Qbkw2wau7o3z1nQbY7HWUmceldwuJV0dVKjvHMKnE3GhSM336TnYMJjVgaIfZzF3p6iJmlI6OdevGLAWUQ7CpE0UOT0XFQ9jYSPcUu8n0iVInU6QQQgAY6+TzLwSsJxOnX33thjA2T7zmbjL9BameAfl2NYqDg7AzQhNWmhACvLCqF+FdPVJw9u23ORdKF+Gt146SEsQpSWAJh558zj17NoQEal+kEu9kIRt7Z1RVMc7q6lXwUhWaoJIEr4b3jZ57/31ithsDI4ODnH/FbQmNFTB4wpqLrbBwCeOaXft0sgdLePzb16BUL0lHzZOF0//13wFHEfQlXoKNfQsXPsO4Z836BYykNKFECV5hzcnlLn75JenCjYGhb77BoUTJcQJvkudPepdxVlU9mQwPhxW7Iz/+MenCjQNYs0lGqgkGZ0tLf8v4li17VEmDg1c4ysq4wSNHSBduDMALnNFMO2nZD0z1/Y2rtjG2oqJ5bKZmJNEcHOLc12hQPPXSS6QLNw5OvvhiUtNMPOPMzOSa9foGxr10aYk1K7tHieMM8O0HV0UF55o5E78X1V1ZmRTCyiB6Mrk+wcur4sGVnh5UV1VSjQ0E21qzso613XVX4HcY7Dk5v0nkfPVYEJ6onp/9jJhOPk4++yz3dUqKIhlINIJ3g22tev1vsLEBXevX11jV6j4lXogxGoRBDZ6ga+SnQ+QA1s6dM2Yk3at5YpuqVH3+LVsqiLnRFYZJcZeV7VXy6z7JJHjmud//nphQOk488eSoGZonPpU7ffobYGNi7gA69+wpsRny28ZqxVAqwWCty5ZzIxLXywGD4NXl5UlJ96IR5jc2g6G968EH6S/L8t5zT51Vpbo4XkMLxFsLmiL3/QXWgaSh54knRt3QQLChNTPzUvfWrdFfreapqbnVk5Y2ZhsR0QiGg2MQUn4+ZLDrCMdOmTomxsZpIHIMX3196MZDJDQbDD9wpaUNKPWSSCWIvVujuf4Ss2g49i//OuqxmifYzK1WD6L0dTUxpzS0Ll0x25Gd3T9ejA5LBd3bg9+SowEyENjQGAuvBkIYset0F1yLb43v3a6O++4zsfn51vGwi2/Pz496XOL4w4/gDyXZeXUkgo1sRuM//Lt2GYn54gc7s+JhF5q2j9YmhZjgsfyrBcW4xLLQ0THzarAJ2IY1l/8bMZcy6Fm1ymDPzj6s5Fu8pRAM6ZhexsGrhsQ49vDDY2ZooB+foM3+3IdsQ8ykPOzV1WarRtM6WoaHMHHsoZ8SEwcw4HLBO5nGzNhwBNCm07U3mUzKv4w2EuzLlpntWq0jmYYHgzrLyoiZEVA6ePSBB0b1dKyQ0FebRmP/stgc/ru+owX/A7uMzkmT9sFXMpSeMIHB+z75BNv6UouFs+nzRt2rYaUPx2ijcb9n0/bkHL6PF/4VK25FilnhZ5OVSCch7z7+6KP4VbajaWjQHVb47EZjiwf1iXRvfMPd0NBg02oPOtLTr8KZl/E4c+UJuoGOcNQPjU9NrvnzQ19leqPhvK0rxz9//h12g7GJVasvtSHvUWLDIx6CcaFt0MGVmXnJptd/1l5Xd3u3w5FL1P1uwrf23pnO8vJ1jqKiP1lUqi6rSjUAazjwxhBYJobHGrb95DwZIAv3wFgCq55QF14XysgYaEZtOAoLP0TtrfatXTuTqPH/AHAdHRMddQtm2qdMabDlmZa0375qh3t27a9a1Jr9yLD7hLSoNfvcNbX/2blq1Q6bybQE7oGfqOgdlx7LMP8H4/fxlyO1chQAAAAASUVORK5CYII=;" parent="1" vertex="1">
          <mxGeometry x="174.5" y="260" width="35.5" height="35.5" as="geometry" />
        </mxCell>
        <mxCell id="EFB3lMguBdTY_EOJPcx--1" value="" style="shape=image;verticalLabelPosition=bottom;labelBackgroundColor=default;verticalAlign=top;aspect=fixed;imageAspect=0;image=data:image/png,iVBORw0KGgoAAAANSUhEUgAAAGgAAABpCAMAAAGWmaagAAAAAXNSR0IArs4c6QAAAARnQU1BAACxjwv8YQUAAALuUExURQAAAP5mAP5nAP5lAP5nAP5lAP5mAP5pAP5lAP5lAP5lAP5qAP5oAP9oAP5mAP5pAP5lAP5kAP5mAP5lAP5lAP5jAP5oAP5lAP5nAP5iAP5lAP5mAP9nAP5kAP5lAP5hAP5nAP5cAP9mAP5lAP5mAP9/AP5lAP5mAP5lAP5nAP5pAP5eAP9qAP5mAP5cAP5nAP9mAP5mAP5lAP5mAP5lAP9mAP9fAP5jAP5lAP5jAP9pAP5lAP5kAP5mAP5kAP9tAP5xAP5lAP5oAP5mAP5lAP5kAP9fAP5lAP5mAP5nAP5lAP5lAP5kAP5mAP9VAP5lAP5kAP5lAP5gAP9qAP5lAP5lAP+qAP5lAP5mAP5lAP5mAP5nAP9rAP5mAP5lAP5oAP5mAP5oAP5UAP5kAP5nAP5lAP5nAP9mAP5lAP5kAP5mAP9mAP5mAP5mAP5lAP5jAP5lAP5mAP5oAP5pAP5nAP5lAP5tAP9pAP5lAP5oAP8/AP5kAP5mAP5mAP5lAP9hAP9mAP5lAP5mAP9VAP5kAP5kAP5iAP5mAP5lAP5lAP5lAP5oAP5lAP5lAP5nAP5lAP5nAP5mAP9wAP9mAP9nAP5lAP5kAP5jAP5lAP5nAP5mAP9qAP5mAP9VAP5nAP5kAP9/AP5tAP5oAP5lAP5kAP5lAP5bAP5kAP5mAP8AAP5sAP5mAP5mAP5lAP9kAP9aAP5iAP9mAP5mAP5dAP5mAP9uAP5mAP5lAP5qAP5lAP5hAP5mAP5lAP5mAP9lAP5lAP9kAP5mAP9mAP5nAP9mAP5nAP5kAP5mAP5mAP5lAP5kAP5nAP5nAP//AP5lAP5kAP9sAP5lAP5nAP5mAP5lAP5nAP5oAP5nAP5iAP5lAP5lAP5lAP5mAP5lAP5lAP5lAP5nAP5mAP9/AP9mAP5lAP5mAP5lAP9mAP5rAP5kAP9nAP9qAP5lAP5lAP5kAP5mAP5mAP5lAP5kAP5oAP9kAP5kAP5lAP5lAP5nAP9mAMjoxR8AAAD6dFJOUwDFT+fR1J/8wRnvH7f/+y7JVoFi5FJY0fwNaonwjKsvVBb/2fgGheXGG5obGGsLyx6sje3OoAh9/ClVZ4nHyv8JQZ6hgmMQw46tsPE9/QxJa8sdMCNkA6VwkrE7//LTR4vJCY5W7pfAmmjnBZPUtWTjbRY1zY8c/2kxBIvJNOsiKNj3BvplJ+RxsvP8S4zKzXZX/wr/+0dpU9KzDPQDfiECDkkt5G4OkM4B87v83TARLPDpE5X/1vj+5RWwkfFE0madD7xQ/Uy4+domgy8BMlT/tPI+9Z7+SjHPOnvbvP2p1LUEFIPjxFUT5iD/XZ5/vf7fK1NgWbn6o8xPfpfoAAAACXBIWXMAABcRAAAXEQHKJvM/AAAFKklEQVRYR+2ZfXwcQxjHl1KK9dZQ4q0ZWkElLqSqxTWk6q31cqiXLUUoTjghLmlRFaFFvHVJ9UVSrXo7xEtE4iVFSWk0R0pT2vNSQbpU0Yr855mZZ/d2N5PcXrL5fNra7+dzmXvmmd/+9mZmd2Y3kp2CgCSNhg8nTCRJI/s7jMIkzYh01nURjZcipmid9HWXLSk0ck5ggSQVr8dAIhp8ZAy6j+CbKdJhNfjdHBmtBRFFEPUY6AqFlgocKMhqDCAFv4KOBZH10UB6nCLhWEymZx2OxCgPzo2nbMg4NubU9LObJ6nCFPNqF6u0g339oBClED21ds9OPFzCU66zInAnKxsDxayMMxnOaBKUQ6HM5FU6DVCVBWUhlB28SmcLSs2EcgKUb/EqHZoiT8RGwAgSspGNf+wHU8pGyK2UvLS5+TAoBSnavb/A+QhS9Hc1iVP1EA+EUnQaa30+OsFEKSRx6h8MzSziqRyclmZm8NRWzuZl9Geqr+lXw2fvsXkSeRRjIQ38YtauxvhduO0A8iOLsUKELqIzmFKIog7b/crCtiw6COMsFGVmYIUIFJGN1w4sLS0dk1vDQxK56VyIdZaUDsD2DF2UALkWb8QMp6JQ34nUMIWtWIAjkXpXC8+XYW86ERnjNLudzXpnoszxPL/Pvc5F5OMZw0uAXdN53mFHkLAGJNURdlwQfRFl45EIJfQrChinpdUlJq0AW3v0notOKA4EAgsxAiogLm68CiMhc3djM0LNxm3olN/5pP6+jsdCLnictiHy4eh1dwqfotXP8FhIhZ+1UVtf4fGKNuZElH15LMQQNfK4pRZFeTwW4okQT4QYIpywh6Sg6G8eC9FFB17B42+O5SLtFh4LQRGRd3iWLshH74w3b7Vf7hi2RHNGPYTtGbqIhAk8oEWIfsMnqjyCb9g5Zz2GAoohSoC6HAUUpyKSiwLK/0sks8WMDzXgSBS58dbm5sv2el5XORGF+/P8MfdghRORMhgbHIdzxJFoJDbYLhmRfj2lJyPST29sMqILsUErdp8TkbqmLgj7qdGpGDsSEXmXCT7fd2OTG1yi0k1YfOPkTGRjWxT9hALKer/GrpuEbEABZdbUK/Fhunsa/kIBo7LA0c7yQ2zu4eE2L/w4nxOsxBobmAawogdUDlh64pGnZnP+/eD4nFmY0AnmfPvmV5jPPuWSJVVTMJEkR/R/0R9VdPzR/KLbMcMp+G1QtR+zihKNvn0m7r2SZdpL1abnT1W7/3TrgVqea9OMezPcraO35eGb6iSpaPBbjFqzbEaFtRYjpSOvuzc2XeMZeUYGnpFnZNDJqGwPzHD6zKi20GpUdUDIanTH9sMxlRxWI0J2Stm7Ahc5Skbq9P1MPvDseo3vkwxMivgcj9sJuxH9v+XLq+svp9Sv/nQiMdswVHXiodjAzo75T72zaZh4Ge5sBP0Tp5MNRcWkACUcevoNPLQVkVEvkMmi5eYXtHFcNwrlekY9wl0jOQxPoAD8sU9LF41UWa3944yZc4BL50z+c5xV7ZqRqo5bs6FqQWXJECA45NWFF5+kmvWuGclKfpH1PfaokLn7XDTqGGndqc7+ud3k5KaRbZloSt/qjWxd13Te7n1hpGo3XGdZ648qq7EsjG4ZwaEig8o2v3/OKuDJVZumnvylZcVy0YhesTUPzFsJzFu5jJjnNuCmUbd4Rj1mCzCa9pH5qbzXyKRtqPifh8MKX4f56hpaJP3mxXhoG/PvyysqL7/eFcrLUwefj8f18DCQpP8ACZ/D66KoZ6QAAAAASUVORK5CYII=;" vertex="1" parent="1">
          <mxGeometry x="214" y="385.99999999999994" width="26.91" height="27.17" as="geometry" />
        </mxCell>
      </root>
    </mxGraphModel>
  </diagram>
</mxfile>
